<svg enable-background="new 0 0 5669.3 6746.5" viewBox="0 0 5669.3 6746.5" xmlns="http://www.w3.org/2000/svg"><path d="m0 0h5669.3v5669.3h-5669.3z" fill="#fff"/><path d="m216 5453.3h5237.3v-5237.3h-5237.3zm5021.3-216h-4805.3v-4805.3h4805.3z" fill="#e10915"/><path d="m1864.8 2271.1h957.8v957.8h-957.8z" fill="#e10915"/><path d="m2966.6 2270.6v958.3h958.3z" fill="#e10915"/><path d="m1864.8 1169.4h957.8v957.8h-957.8z" fill="#e10915"/><path d="m2966.6 1169.4v958.3l958.3-958.3z" fill="#e10915"/><path d="m1415.5 3795.2h-176.7l-228.3 318.6v-318.6h-155.8v694.8h155.8v-312.7l228.3 312.7h180.7l-268-355.4z" fill="#e10915"/><path d="m2315.6 4331.1c-17.9 22.8-49.6 52.6-99.3 52.6-56.6 0-90.3-36.7-90.3-97.3v-259.1h-136v285.9c0 109.2 62.5 186.6 177.7 186.6 76.4 0 124.1-39.7 147.9-65.5v55.6h134v-462.6h-134z" fill="#e10915"/><path d="m3548.8 4076.1c-27.8-26.8-75.5-58.6-141.9-58.6-129 0-218.4 107.2-218.4 243.2 0 134 88.3 239.2 218.4 239.2 70.5 0 117.1-32.8 141.9-57.6v47.7h134v-462.6h-134zm0 266c-18.9 20.8-50.6 43.7-98.3 43.7-71.5 0-122.1-51.6-122.1-127s50.6-127 122.1-127c47.6 0 79.4 22.8 98.3 43.7z" fill="#e10915"/><path d="m1760.2 4076.1c-27.8-26.8-75.5-58.6-141.9-58.6-129 0-218.4 107.2-218.4 243.2 0 134 88.3 239.2 218.4 239.2 70.5 0 117.1-32.8 141.9-57.6v47.7h134v-462.6h-134zm0 266c-18.9 20.8-50.6 43.7-98.3 43.7-71.4 0-122.1-51.6-122.1-127s50.6-127 122.1-127c47.7 0 79.4 22.8 98.3 43.7z" fill="#e10915"/><path d="m4680.6 3795.2v284.8c-23.8-24.8-72.5-62.5-146.9-62.5-130 0-218.4 107.2-218.4 243.2s90.3 239.2 218.4 239.2c74.4 0 123.1-36.7 146.9-62.5v52.6h134v-694.8zm0 540.9c-17.9 22.9-51.6 49.6-103.2 49.6-71.5 0-122.1-51.6-122.1-127s50.6-127 122.1-127c51.6 0 85.3 26.8 103.2 49.6z" fill="#e10915"/><path d="m4062.9 4017.5c-75.5 0-124.1 39.7-146.9 65.5v-55.6h-135v462.6h135v-303.8c16.9-23.8 48.6-52.6 99.3-52.6 56.6 0 89.3 36.8 89.3 97.3v259.1h136v-285.9c0-109.2-62.6-186.6-177.7-186.6" fill="#e10915"/><path d="m2805.8 3897.4c45.7 0 72.5 19.9 72.5 19.9l21.8-103.3s-36.7-28.8-124.1-28.8c-113.1 0-183.6 65.5-183.6 187.6v54.6h-68.5v111.2h68.5v351.4h138v-351.4h156.8v-111.2h-156.9v-42.7c.1-58.5 26.9-87.3 75.5-87.3" fill="#e10915"/><path d="m2965.1 3795.2h138v694.8h-138z" fill="#e10915"/><path d="m0 0h5669.3v5669.3h-5669.3z" fill="none"/><g fill="#fff"><path d="m790.4 6161.1v423.3h-94.3l-172.9-274.5v274.5h-90.7v-423.3h96.8l170.5 269.7v-269.7z"/><path d="m1163.5 6302.6v281.8h-82.8v-29.6c-15.1 15.1-43.5 35.7-87.1 35.7-78.6 0-132.4-64.1-132.4-145.7 0-82.8 54.4-148.8 132.4-148.8 40.5 0 70.1 20 87.1 36.3v-29.6h82.8zm-82.9 191.1v-100.4c-11.5-12.7-30.8-26.6-59.9-26.6-43.5 0-73.8 31.4-73.8 76.8 0 44.8 30.2 76.8 73.8 76.8 29.1 0 48.4-13.9 59.9-26.6z"/><path d="m1687.7 6161.1v423.3h-82.8v-31.4c-14.5 15.1-44.1 37.5-89.5 37.5-77.4 0-132.4-62.9-132.4-145.7s53.8-148.1 132.4-148.1c45.3 0 75 22.4 89.5 37.5v-173h82.8zm-82.8 330.2v-95.5c-10.9-13.3-30.8-29-62.3-29-43.5 0-73.8 31.4-73.8 76.8s30.2 76.8 73.8 76.8c31.4-.1 51.4-15.8 62.3-29.1z"/><path d="m1750 6444.1c0-89.5 65.3-147.5 153.6-147.5 92.5 0 153 58.6 153 144.5 0 87.1-64.1 149.4-153.6 149.4-93.7 0-153-62.3-153-146.4zm225.6 0c0-47.8-29-79.2-72-79.2-44.8 0-72.6 32-72.6 79.8 0 46 29 77.4 72.6 77.4 44.1 0 71.9-32 72-78z"/><path d="m2420.6 6442.3c0 83.5-55 148.1-133 148.1-42.3 0-70.8-20-86.5-35.1v29.6h-82.2v-423.9h82.2v170.5c15.7-15.1 44.1-35.1 86.5-35.1 79.2.2 133 63.7 133 145.9zm-85.9 1.2c0-45.4-30.8-76.8-74.4-76.8-29 0-47.8 13.9-59.3 26.6v100.4c11.5 12.7 30.2 26.6 59.3 26.6 43.6 0 74.4-31.4 74.4-76.8z"/><path d="m2678.8 6299.6-6 79.8s-6.6-1.8-20-1.8c-42.9 0-70.8 28.4-86.5 49.6v157.2h-83.4v-281.8h83.4v49.6c17.5-25.4 48.4-55.6 90.1-55.6 15.7 0 22.4 3 22.4 3z"/><path d="m2721.1 6647.9c44.1 0 72.6-19.4 87.7-57.4l9.1-20-108.9-267.9h90.7l63.5 182.6 61.1-182.6h82.2l-101.6 279.4c-30.2 91.3-86.5 129.4-183.8 129.4z"/><path d="m3426.7 6572.9s-23 17.5-76.8 17.5c-68.9 0-111.9-37.5-111.9-112.5v-108.8h-39.9v-66.5h39.9v-101h85.3v101h95.5v66.5h-95.5v94.3c0 35.7 16.3 52 45.4 52 28.4 0 44.8-12.1 44.8-12.1z"/><path d="m3469.7 6647.9c44.1 0 72.6-19.4 87.7-57.4l9.1-20-108.8-267.9h90.7l63.5 182.6 61.1-182.6h82.2l-101.7 279.4c-30.2 91.3-86.5 129.4-183.8 129.4z"/><path d="m4082.8 6161.1v423.3h-82.8v-31.4c-14.5 15.1-44.1 37.5-89.5 37.5-77.4 0-132.4-62.9-132.4-145.7s53.8-148.1 132.4-148.1c45.4 0 75 22.4 89.5 37.5v-173h82.8zm-82.8 330.2v-95.5c-10.9-13.3-30.8-29-62.3-29-43.5 0-73.8 31.4-73.8 76.8s30.2 76.8 73.8 76.8c31.4-.1 51.4-15.8 62.3-29.1z"/><path d="m4145.7 6521.5 142.1-153h-138.5v-65.9h246.1v63.5l-140.9 152.4h146.3v65.9h-255.2v-62.9z"/><path d="m4460.7 6221.6c0-25.4 18.1-42.9 45.4-42.9 29 0 44.8 16.9 44.8 41.7 0 25.4-16.9 42.9-44.1 42.9-27.9 0-46.1-16.9-46.1-41.7zm3 81h84v281.8h-84z"/><path d="m4896.1 6468.3-203.8-.6c8.5 39.3 36.9 58.6 81.6 58.6 58 0 85.3-28.4 85.3-28.4l27.8 50.2s-36.3 42.3-118.5 42.3c-97.4 0-158.4-58-158.4-147.5 0-84.7 56.2-146.3 146.9-146.3 87.1 0 139.1 60.5 139.1 148.1zm-76.2-52.6c-2.4-32.6-24.8-59.9-63.5-59.9-33.3 0-58 21.2-65.3 59.9z"/><path d="m5237.7 6410.3v174.1h-83.5v-157.8c0-36.3-20.6-58.6-54.4-58.6-29.6 0-49 17.5-59.9 31.4v185h-82.8v-281.8h82.8v32.6c14.5-15.1 43.5-38.7 89.5-38.7 70.2.1 108.3 47.3 108.3 113.8zm-119.1-141.5-46.6-18.1 50.2-110.6 56.8 29z"/></g></svg>