<svg id="Ebene_1" xmlns="http://www.w3.org/2000/svg" viewBox="0 0 5669.3 6740.8"><style>.st1{fill:#e10915}</style><path fill="#fff" d="M0 0h5669.3v5669.3H0z"/><path class="st1" d="M216 5453.3h5237.3V216H216v5237.3zm5021.3-216H432V432h4805.3v4805.3z"/><path class="st1" d="M1864.8 2271.1h957.8v957.8h-957.8zM2966.6 2270.6v958.3h958.3zM1864.8 1169.4h957.8v957.8h-957.8zM2966.6 1169.4v958.3l958.3-958.3zM1415.5 3795.2h-176.7l-228.3 318.6v-318.6H854.7V4490h155.8v-312.7l228.3 312.7h180.7l-268-355.4zM2315.6 4331.1c-17.9 22.8-49.6 52.6-99.3 52.6-56.6 0-90.3-36.7-90.3-97.3v-259.1h-136v285.9c0 109.2 62.5 186.6 177.7 186.6 76.4 0 124.1-39.7 147.9-65.5v55.6h134v-462.6h-134v303.8zM3548.8 4076.1c-27.8-26.8-75.5-58.6-141.9-58.6-129 0-218.4 107.2-218.4 243.2 0 134 88.3 239.2 218.4 239.2 70.5 0 117.1-32.8 141.9-57.6v47.7h134v-462.6h-134v48.7zm0 266c-18.9 20.8-50.6 43.7-98.3 43.7-71.5 0-122.1-51.6-122.1-127s50.6-127 122.1-127c47.6 0 79.4 22.8 98.3 43.7v166.6z"/><path class="st1" d="M1760.2 4076.1c-27.8-26.8-75.5-58.6-141.9-58.6-129 0-218.4 107.2-218.4 243.2 0 134 88.3 239.2 218.4 239.2 70.5 0 117.1-32.8 141.9-57.6v47.7h134v-462.6h-134v48.7zm0 266c-18.9 20.8-50.6 43.7-98.3 43.7-71.4 0-122.1-51.6-122.1-127s50.6-127 122.1-127c47.7 0 79.4 22.8 98.3 43.7v166.6zM4680.6 3795.2V4080c-23.8-24.8-72.5-62.5-146.9-62.5-130 0-218.4 107.2-218.4 243.2s90.3 239.2 218.4 239.2c74.4 0 123.1-36.7 146.9-62.5v52.6h134v-694.8h-134zm0 540.9c-17.9 22.9-51.6 49.6-103.2 49.6-71.5 0-122.1-51.6-122.1-127s50.6-127 122.1-127c51.6 0 85.3 26.8 103.2 49.6v154.8zM4062.9 4017.5c-75.5 0-124.1 39.7-146.9 65.5v-55.6h-135V4490h135v-303.8c16.9-23.8 48.6-52.6 99.3-52.6 56.6 0 89.3 36.8 89.3 97.3V4490h136v-285.9c0-109.2-62.6-186.6-177.7-186.6M2805.8 3897.4c45.7 0 72.5 19.9 72.5 19.9l21.8-103.3s-36.7-28.8-124.1-28.8c-113.1 0-183.6 65.5-183.6 187.6v54.6h-68.5v111.2h68.5V4490h138v-351.4h156.8v-111.2h-156.9v-42.7c.1-58.5 26.9-87.3 75.5-87.3M2965.1 3795.2h138V4490h-138z"/><path fill="none" d="M0 0h5669.3v5669.3H0z"/></svg>