<svg enable-background="new 0 0 5669.3 6590.5" viewBox="0 0 5669.3 6590.5" xmlns="http://www.w3.org/2000/svg"><path d="m0 0h5669.3v5669.3h-5669.3z" fill="#fff"/><path d="m216 5453.3h5237.3v-5237.3h-5237.3zm5021.3-216h-4805.3v-4805.3h4805.3z" fill="#e10915"/><path d="m1864.8 2271.1h957.8v957.8h-957.8z" fill="#e10915"/><path d="m2966.6 2270.6v958.3h958.3z" fill="#e10915"/><path d="m1864.8 1169.4h957.8v957.8h-957.8z" fill="#e10915"/><path d="m2966.6 1169.4v958.3l958.3-958.3z" fill="#e10915"/><path d="m1415.5 3795.2h-176.7l-228.3 318.6v-318.6h-155.8v694.8h155.8v-312.7l228.3 312.7h180.7l-268-355.4z" fill="#e10915"/><path d="m2315.6 4331.1c-17.9 22.8-49.6 52.6-99.3 52.6-56.6 0-90.3-36.7-90.3-97.3v-259.1h-136v285.9c0 109.2 62.5 186.6 177.7 186.6 76.4 0 124.1-39.7 147.9-65.5v55.6h134v-462.6h-134z" fill="#e10915"/><path d="m3548.8 4076.1c-27.8-26.8-75.5-58.6-141.9-58.6-129 0-218.4 107.2-218.4 243.2 0 134 88.3 239.2 218.4 239.2 70.5 0 117.1-32.8 141.9-57.6v47.7h134v-462.6h-134zm0 266c-18.9 20.8-50.6 43.7-98.3 43.7-71.5 0-122.1-51.6-122.1-127s50.6-127 122.1-127c47.6 0 79.4 22.8 98.3 43.7z" fill="#e10915"/><path d="m1760.2 4076.1c-27.8-26.8-75.5-58.6-141.9-58.6-129 0-218.4 107.2-218.4 243.2 0 134 88.3 239.2 218.4 239.2 70.5 0 117.1-32.8 141.9-57.6v47.7h134v-462.6h-134zm0 266c-18.9 20.8-50.6 43.7-98.3 43.7-71.4 0-122.1-51.6-122.1-127s50.6-127 122.1-127c47.7 0 79.4 22.8 98.3 43.7z" fill="#e10915"/><path d="m4680.6 3795.2v284.8c-23.8-24.8-72.5-62.5-146.9-62.5-130 0-218.4 107.2-218.4 243.2s90.3 239.2 218.4 239.2c74.4 0 123.1-36.7 146.9-62.5v52.6h134v-694.8zm0 540.9c-17.9 22.9-51.6 49.6-103.2 49.6-71.5 0-122.1-51.6-122.1-127s50.6-127 122.1-127c51.6 0 85.3 26.8 103.2 49.6z" fill="#e10915"/><path d="m4062.9 4017.5c-75.5 0-124.1 39.7-146.9 65.5v-55.6h-135v462.6h135v-303.8c16.9-23.8 48.6-52.6 99.3-52.6 56.6 0 89.3 36.8 89.3 97.3v259.1h136v-285.9c0-109.2-62.6-186.6-177.7-186.6" fill="#e10915"/><path d="m2805.8 3897.4c45.7 0 72.5 19.9 72.5 19.9l21.8-103.3s-36.7-28.8-124.1-28.8c-113.1 0-183.6 65.5-183.6 187.6v54.6h-68.5v111.2h68.5v351.4h138v-351.4h156.8v-111.2h-156.9v-42.7c.1-58.5 26.9-87.3 75.5-87.3" fill="#e10915"/><path d="m2965.1 3795.2h138v694.8h-138z" fill="#e10915"/><path d="m0 0h5669.3v5669.3h-5669.3z" fill="none"/><g fill="#fff"><path d="m690.5 6379.8c0 57.1-41.3 95.9-120.9 95.9h-137.2v-335.7h135.7c70.5 0 107 30.7 107 83.9 0 36.9-18.7 64.3-51.3 77.7 42.2 10.1 66.7 36 66.7 78.2zm-181.3-186.6v85.4h46.5c31.2 0 49.4-18.7 49.4-44.1 0-26.9-15.8-41.3-49.9-41.3zm107 182.8c0-27.8-20.2-44.6-51.8-44.6h-55.2v88.7h55.2c34 0 51.7-17.3 51.8-44.1z"/><path d="m739.9 6187.9c0-20.1 14.4-34.1 36-34.1 23 0 35.5 13.4 35.5 33.1 0 20.1-13.4 34.1-35 34.1-22.1 0-36.5-13.4-36.5-33.1zm2.4 64.3h66.7v223.5h-66.7z"/><path d="m1021 6249.8-4.8 63.3s-5.3-1.4-15.8-1.4c-34.1 0-56.1 22.5-68.6 39.3v124.7h-66.2v-223.5h66.2v39.3c13.9-20.1 38.4-44.1 71.5-44.1 12.4 0 17.7 2.4 17.7 2.4z"/><path d="m1282.4 6252.2v223.5h-65.7v-23.5c-12 12-34.5 28.3-69.1 28.3-62.4 0-105-50.8-105-115.6 0-65.7 43.2-118 105-118 32.1 0 55.6 15.8 69.1 28.8v-23.5zm-65.7 151.6v-79.6c-12-13.6-29.3-21.3-47.5-21.1-34.5 0-58.5 24.9-58.5 60.9 0 35.5 24 60.9 58.5 60.9 18.1.2 35.4-7.5 47.5-21.1z"/><path d="m1293.9 6575 4.8-50.4c2.4.6 4.8.9 7.2 1 21.6 0 33.1-14.4 33.1-43.6v-229.8h68.1v229.8c0 63.3-40.3 94.5-95.9 94.5-5.8-.1-11.6-.6-17.3-1.5zm43.1-387.1c0-20.1 14.9-34.1 36.4-34.1 23 0 36.4 13.4 36.4 33.1 0 20.1-13.9 34.1-36 34.1s-36.8-13.4-36.8-33.1z"/><path d="m1810.9 6337.6v138.1h-66.2v-125.2c0-28.8-16.3-46.5-43.2-46.5-23.5 0-38.8 13.9-47.5 24.9v146.8h-65.7v-223.5h65.7v25.9c11.5-12 34.5-30.7 71-30.7 55.7 0 85.9 37.4 85.9 90.2z"/><path d="m2096.3 6252.2v223.5h-65.7v-23.5c-12 12-34.5 28.3-69.1 28.3-62.4 0-105-50.8-105-115.6 0-65.7 43.2-118 105-118 32.1 0 55.6 15.8 69.1 28.8v-23.5zm-65.7 151.6v-79.6c-12-13.6-29.3-21.3-47.5-21.1-34.5 0-58.5 24.9-58.5 60.9 0 35.5 24 60.9 58.5 60.9 18.2.2 35.5-7.5 47.5-21.1z"/><path d="m2107.9 6575 4.8-50.4c2.4.6 4.8.9 7.2 1 21.6 0 33.1-14.4 33.1-43.6v-229.8h68.1v229.8c0 63.3-40.3 94.5-95.9 94.5-5.9-.1-11.7-.6-17.3-1.5zm43.1-387.1c0-20.1 14.9-34.1 36.4-34.1 23 0 36.4 13.4 36.4 33.1 0 20.1-13.9 34.1-36 34.1s-36.8-13.4-36.8-33.1z"/><path d="m2517 6363c0 66.2-43.6 117.5-105.5 117.5-33.6 0-56.1-15.8-68.6-27.8v23.5h-65.2v-336.2h65.2v135.3c12.5-12 35-27.8 68.6-27.8 62.8-.1 105.5 50.3 105.5 115.5zm-68.1 1c0-36-24.5-60.9-59-60.9-23 0-37.9 11-47 21.1v79.6c9.1 10.1 24 21.1 47 21.1 34.5 0 59-24.9 59-60.9z"/><path d="m2559.2 6364.5c0-71 51.8-117 121.8-117 73.4 0 121.4 46.5 121.4 114.6 0 69.1-50.8 118.5-121.8 118.5-74.4-.1-121.4-49.5-121.4-116.1zm178.9 0c0-37.9-23-62.8-57.1-62.8-35.5 0-57.6 25.4-57.6 63.3 0 36.5 23 61.4 57.6 61.4 35-.1 57.1-25.5 57.1-61.9z"/><path d="m2851.8 6140h67.1v335.8h-67.1z"/><path d="m2930.4 6575 4.8-50.4c2.4.6 4.8.9 7.2 1 21.6 0 33.1-14.4 33.1-43.6v-229.8h68.1v229.8c0 63.3-40.3 94.5-95.9 94.5-5.8-.1-11.5-.6-17.3-1.5zm43.2-387.1c0-20.1 14.9-34.1 36.4-34.1 23 0 36.4 13.4 36.4 33.1 0 20.1-13.9 34.1-36 34.1s-36.8-13.4-36.8-33.1z"/><path d="m3319.9 6383.6-161.6-.5c6.7 31.2 29.3 46.5 64.8 46.5 46 0 67.6-22.5 67.6-22.5l22.1 39.8s-28.8 33.6-94 33.6c-77.2 0-125.7-46-125.7-117 0-67.1 44.6-116.1 116.6-116.1 69.1 0 110.3 48 110.3 117.5zm-60.4-41.7c-1.9-25.9-19.7-47.5-50.4-47.5-26.4 0-46 16.8-51.8 47.5z"/><path d="m3486.4 6425.9 112.7-121.4h-109.8v-52.3h195.2v50.4l-111.8 120.9h116.1v52.3h-202.4z"/><path d="m3959.3 6252.2v223.5h-65.7v-23.5c-12 12-34.5 28.3-69.1 28.3-62.4 0-105-50.8-105-115.6 0-65.7 43.2-118 105-118 32.1 0 55.6 15.8 69.1 28.8v-23.5zm-65.7 151.6v-79.6c-12-13.6-29.3-21.3-47.5-21.1-34.5 0-58.5 24.9-58.5 60.9 0 35.5 24 60.9 58.5 60.9 18.1.2 35.5-7.5 47.5-21.1z"/><path d="m4131 6457.5 14.9-43.2s20.6 18.7 60.9 18.7c19.7 0 32.6-8.1 32.6-24.5 0-15.8-13.9-21.6-36.9-26.9l-9.6-1.9c-33.1-7.2-56.6-22.1-56.6-60.9 0-44.1 35-71.5 89.2-71.5 56.6 0 83 22.1 83 22.1l-15.8 42.7s-19.2-16.8-57.1-16.8c-19.2 0-30.2 7.7-30.2 23 0 16.3 14.9 21.6 39.3 27.3l8.1 1.9c32.6 6.7 57.1 21.6 57.1 60.4 0 44.6-36 72.4-91.6 72.4-61.4.2-87.3-22.8-87.3-22.8z"/><path d="m4573.3 6383.6-161.6-.5c6.7 31.2 29.3 46.5 64.8 46.5 46 0 67.6-22.5 67.6-22.5l22.1 39.8s-28.8 33.6-94 33.6c-77.2 0-125.7-46-125.7-117 0-67.1 44.6-116.1 116.6-116.1 69.1 0 110.3 48 110.3 117.5zm-60.5-41.7c-1.9-25.9-19.7-47.5-50.4-47.5-26.4 0-46 16.8-51.8 47.5z"/><path d="m4861 6363c0 66.2-43.6 117.5-105.5 117.5-33.6 0-56.1-15.8-68.6-27.8v23.5h-65.2v-336.2h65.2v135.3c12.5-12 35-27.8 68.6-27.8 62.9-.1 105.5 50.3 105.5 115.5zm-68.1 1c0-36-24.5-60.9-59-60.9-23 0-37.9 11-47 21.1v79.6c9.1 10.1 24 21.1 47 21.1 34.6 0 59-24.9 59-60.9z"/><path d="m5130.1 6383.6-161.6-.5c6.7 31.2 29.3 46.5 64.8 46.5 46 0 67.6-22.5 67.6-22.5l22.1 39.8s-28.8 33.6-94 33.6c-77.2 0-125.7-46-125.7-117 0-67.1 44.6-116.1 116.6-116.1 69.1 0 110.3 48 110.3 117.5zm-60.4-41.7c-1.9-25.9-19.7-47.5-50.4-47.5-26.4 0-46 16.8-51.8 47.5z"/><path d="m5163.7 6445.5c0-21.1 15.4-36 36.5-36 23 0 36.5 14.4 36.5 35.5 0 20.6-13.9 35.5-36 35.5-21.7 0-37-14.4-37-35z"/></g></svg>