<svg viewBox="0 0 101 101" xmlns="http://www.w3.org/2000/svg"><path d="m0 0h101v101h-101z" fill="#fff"/><g fill="#e10915"><path d="m4 97h93v-93h-93zm89-4h-85v-85h85z"/><path d="m33 41h17v17h-17z"/><path d="m33 21h17v17h-17z"/><path d="m53 58h17l-17-17z"/><path d="m53 21v17l17-17z"/><path d="m52.77 67.89h2.4v12.11h-2.4z"/><path d="m82.67 67.89v5a3.51 3.51 0 0 0 -2.56-1.09c-2.27 0-3.81 1.87-3.81 4.24a3.88 3.88 0 0 0 3.81 4.17 3.45 3.45 0 0 0 2.56-1.09v.88h2.33v-12.11zm0 9.43a2.25 2.25 0 0 1 -1.8.86 2.22 2.22 0 0 1 0-4.43 2.25 2.25 0 0 1 1.8.86z"/><path d="m62.94 72.78a3.55 3.55 0 0 0 -2.47-1c-2.25 0-3.8 1.87-3.8 4.24a3.88 3.88 0 0 0 3.8 4.17 3.44 3.44 0 0 0 2.47-1v.81h2.34v-8.06h-2.34zm0 4.63a2.25 2.25 0 0 1 -1.71.76 2.22 2.22 0 0 1 0-4.43 2.26 2.26 0 0 1 1.71.76z"/><path d="m71.9 71.76a3.39 3.39 0 0 0 -2.56 1.14v-1h-2.34v8.1h2.35v-5.29a2.08 2.08 0 0 1 1.73-.92 1.49 1.49 0 0 1 1.56 1.69v4.52h2.36v-5a3 3 0 0 0 -3.1-3.25"/><path d="m41.46 77.23a2.18 2.18 0 0 1 -1.73.92 1.51 1.51 0 0 1 -1.57-1.69v-4.52h-2.38v5a3 3 0 0 0 3.1 3.25 3.44 3.44 0 0 0 2.58-1.19v1h2.34v-8.06h-2.34z"/><path d="m31.78 72.78a3.55 3.55 0 0 0 -2.47-1c-2.25 0-3.8 1.87-3.8 4.24a3.88 3.88 0 0 0 3.8 4.17 3.44 3.44 0 0 0 2.47-1v.81h2.34v-8.06h-2.34zm0 4.63a2.25 2.25 0 0 1 -1.71.76 2.22 2.22 0 0 1 0-4.43 2.26 2.26 0 0 1 1.71.76z"/><path d="m25.77 67.89h-3.08l-3.97 5.55v-5.55h-2.72v12.11h2.72v-5.45l3.97 5.45h3.15l-4.67-6.19z"/><path d="m50 69.67a2.24 2.24 0 0 1 1.26.35l.38-1.8a3.68 3.68 0 0 0 -2.16-.5 3 3 0 0 0 -3.2 3.28v1h-1.19v1.94h1.19v6.06h2.4v-6.13h2.73v-1.93h-2.73v-.74c0-1 .47-1.52 1.31-1.52"/></g></svg>