<?xml version="1.0" encoding="utf-8"?>
<!-- Generator: Adobe Illustrator 22.1.0, SVG Export Plug-In . SVG Version: 6.00 Build 0)  -->
<svg version="1.1" xmlns="http://www.w3.org/2000/svg" xmlns:xlink="http://www.w3.org/1999/xlink" x="0px" y="0px"
	 viewBox="0 0 5669.3 6933.8" style="enable-background:new 0 0 5669.3 6933.8;" xml:space="preserve">
<style type="text/css">
	.st0{fill:#FFFFFF;}
	.st1{fill:#E10915;}
	.st2{fill:none;}
	.st3{fill:#E3000F;}
</style>
<g id="kaufland">
	<path class="st0" d="M0,0h5669.3v5669.3H0V0z"/>
	<path class="st1" d="M216,216v5237.3h5237.3V216H216z M5237.3,5237.3H432V432h4805.3V5237.3z"/>
	<polygon class="st1" points="2966.6,2270.6 2966.6,3228.9 3924.9,3228.9 	"/>
	<rect x="1864.8" y="2271.1" class="st1" width="957.8" height="957.8"/>
	<polygon class="st1" points="2966.6,1169.4 2966.6,2127.7 3924.9,1169.4 	"/>
	<rect x="1864.8" y="1169.4" class="st1" width="957.8" height="957.8"/>
	<path class="st1" d="M4680.6,3795.2V4080c-23.8-24.8-72.5-62.5-146.9-62.5c-130,0-218.4,107.2-218.4,243.2s90.3,239.2,218.4,239.2
		c74.4,0,123.1-36.7,146.9-62.5v52.6h134v-694.8H4680.6z M4680.6,4336.1c-17.9,22.9-51.6,49.6-103.2,49.6
		c-71.5,0-122.1-51.6-122.1-127s50.6-127,122.1-127c51.6,0,85.3,26.8,103.2,49.6V4336.1z"/>
	<path class="st1" d="M4062.9,4017.5c-75.5,0-124.1,39.7-146.9,65.5v-55.6h-135V4490h135v-303.8c16.9-23.8,48.6-52.6,99.3-52.6
		c56.6,0,89.3,36.8,89.3,97.3V4490h136v-285.9C4240.6,4094.9,4178,4017.5,4062.9,4017.5"/>
	<path class="st1" d="M3548.8,4027.4v48.7c-27.8-26.8-75.5-58.6-141.9-58.6c-129,0-218.4,107.2-218.4,243.2
		c0,134,88.3,239.2,218.4,239.2c70.5,0,117.1-32.8,141.9-57.6v47.7h134v-462.6H3548.8z M3548.8,4342.1
		c-18.9,20.8-50.6,43.7-98.3,43.7c-71.5,0-122.1-51.6-122.1-127s50.6-127,122.1-127c47.6,0,79.4,22.8,98.3,43.7V4342.1z"/>
	<rect x="2965.1" y="3795.2" class="st1" width="138" height="694.8"/>
	<path class="st1" d="M2805.8,3897.4c45.7,0,72.5,19.9,72.5,19.9l21.8-103.3c0,0-36.7-28.8-124.1-28.8
		c-113.1,0-183.6,65.5-183.6,187.6v54.6h-68.5v111.2h68.5V4490h138v-351.4h156.8v-111.2h-156.9v-42.7
		C2730.4,3926.2,2757.2,3897.4,2805.8,3897.4"/>
	<path class="st1" d="M2315.6,4331.1c-17.9,22.8-49.6,52.6-99.3,52.6c-56.6,0-90.3-36.7-90.3-97.3v-259.1h-136v285.9
		c0,109.2,62.5,186.6,177.7,186.6c76.4,0,124.1-39.7,147.9-65.5v55.6h134v-462.6h-134L2315.6,4331.1L2315.6,4331.1z"/>
	<path class="st1" d="M1760.2,4027.4v48.7c-27.8-26.8-75.5-58.6-141.9-58.6c-129,0-218.4,107.2-218.4,243.2
		c0,134,88.3,239.2,218.4,239.2c70.5,0,117.1-32.8,141.9-57.6v47.7h134v-462.6H1760.2z M1760.2,4342.1
		c-18.9,20.8-50.6,43.7-98.3,43.7c-71.4,0-122.1-51.6-122.1-127s50.6-127,122.1-127c47.7,0,79.4,22.8,98.3,43.7V4342.1z"/>
	<polygon class="st1" points="1415.5,3795.2 1238.8,3795.2 1010.5,4113.8 1010.5,3795.2 854.7,3795.2 854.7,4490 1010.5,4490 
		1010.5,4177.3 1238.8,4490 1419.5,4490 1151.5,4134.6 	"/>
	<path class="st2" d="M0,0h5669.3v5669.3H0V0z"/>
</g>
<g id="claim_org">
	<path class="st3" d="M4616.8,6298.6c-16.1-10.3-34.6-15.4-55.1-15.4c-15.4,0-29,2.8-40.5,8.5c-11.5,5.6-21.3,12.3-29.2,20v-136.9
		h-64.9v338.6h64.9v-23.8c7.9,7.9,17.7,14.6,29.2,20.2c11.5,5.6,25.1,8.5,40.5,8.5c20.3,0,38.4-5.1,54.9-15.6
		c16.1-10.3,29-24.6,37.9-42.8c9-18.2,13.6-38.2,13.6-60c0-22-4.6-41.8-13.3-59.5C4645.5,6322.7,4632.9,6308.6,4616.8,6298.6
		 M4592.2,6432.9c-5.1,9.5-12,16.7-21,22c-9,5.4-19.2,7.9-30.8,7.9c-19.2,0-35.4-7.2-48.4-21.8v-80.7c12.8-14.6,29-21.8,48.4-21.8
		c11.5,0,21.8,2.6,30.8,7.7c9.2,5.1,16.1,12.6,21,22c5.1,9.5,7.4,20.3,7.4,32.3C4599.9,6412.7,4597.3,6423.4,4592.2,6432.9"/>
	<path class="st3" d="M4869.3,6288.1v23.8c-8.5-8.2-18.5-15.1-30-20.8c-11.5-5.6-24.9-8.5-39.7-8.5c-20.5,0-38.7,5.4-54.9,15.6
		c-16.1,10.5-28.7,24.9-37.7,42.8c-9,18.2-13.3,38.2-13.3,60s4.4,41.5,13.3,59.5c9,17.9,21.5,31.8,37.4,42
		c16.1,10.3,34.6,15.4,55.1,15.4c15.4,0,29-2.8,40.5-8.5c11.5-5.6,21.3-12.3,29.2-20.3v23.6h65.6v-225.3h-65.6V6288.1z
		 M4869.3,6441.1c-5.4,6.2-12.3,11.3-20.3,15.4c-7.9,4.1-17.4,6.2-28.2,6.2c-11.5,0-21.8-2.6-30.8-7.9c-9-5.4-15.9-12.6-21-22
		c-5.1-9.5-7.4-20-7.4-32s2.6-22.6,7.4-32c5.1-9.5,12-16.9,21-22c9-5.4,19.2-7.9,30.8-7.9c10.8,0,20,2.1,28.2,6.2
		c7.9,4.1,14.9,9.2,20.3,15.4V6441.1z"/>
	<path class="st3" d="M1831.5,6570.1c-0.3-2.1-1-3.1-2.8-3.1c-2.3,0-3.3,1.5-3.1,3.8c0.3,1.8,1.3,2.6,3.3,2.6
		C1830.7,6573.4,1831.5,6572.4,1831.5,6570.1"/>
	<path class="st3" d="M2212.7,6455.5c-1.8,0-3.8,0.3-6.4,0.8c-1,0.5-2.1,1-2.8,1.5c-1,0.5-1.8,1.3-3.1,2.1c-1.8,1.5-2.6,3.1-2.6,4.4
		c0,0.8,1.5,1,4.4,0.8c1,0,2.8-0.3,5.1-0.3s4.6-0.5,6.9-0.8c2.3-0.5,4.4-1.3,6.4-2.1c2.1-1,2.8-2.3,2.8-3.6c0-1.5-2.1-2.6-6.2-3.1
		C2216,6455.2,2214.5,6455.5,2212.7,6455.5"/>
	<path class="st3" d="M2077.8,6340.6c-4.1-4.9-6.9-8.7-8.2-11.5c0-0.3-0.3-0.5-0.3-0.5c0.3-0.8,0.8-1.5,1-2.1c-0.5,0-1,0.5-1.8,0.8
		c-1.3-2.3-3.1-4.9-5.6-7.9c-3.3-3.8-6.9-7.4-10.8-10.5c-3.8-3.3-7.9-5.9-12-7.9c-4.1-2.1-7.7-3.1-11-3.1
		c-10.5,0.5-17.2,14.9-20,43.1c-0.5,3.6-1,7.4-1.5,11.3c-5.6,3.3-10.8,6.7-15.6,9.5c-9.5,5.9-17.4,11-24.1,15.4
		c-12.8,8.2-28.2,15.6-45.6,22.3c-1.8,1.8-6.4,3.1-14.4,3.3c-6.2,0.3-9.2-2.1-9.5-7.2c0.5-11.5,0.5-22.8,0-33.6
		c-0.8-10-2.8-18.7-6.2-25.6c-1.5-1.3-2.3-4.4-2.6-9.2c-1.8-12.8-6.9-21.5-15.9-25.6c-3.3-1.3-9-4.6-16.7-10
		c-11.5-6.7-20-10-25.4-9.7c-2.1,0-5.1,1.3-9,3.8c-3.1,2.3-6.2,3.6-9,3.6c-3.3,0.3-7.9-0.8-14.1-2.6c-8.5-2.6-16.7-3.6-24.6-3.1
		c-20.5,1-41,11.5-61.3,31.5c-9.2,10.5-18.2,24.9-26.9,42.8c-8.7,17.9-16.4,36.9-23.3,56.9c-6.7,20-12.3,39.7-16.4,59
		c-4.1,19.2-6.2,35.9-6.4,50c1.8,34.6,16.4,61.5,44.1,80.7c15.1,9.5,29.2,13.8,42.3,13.1l1-0.3c3.3-0.5,8.2-2.1,14.9-4.4
		c6.7-2.6,13.6-5.4,20.5-8.7c6.9-3.3,12.8-7.2,17.9-11.5c5.1-4.1,7.4-8.2,7.4-12.3c-0.3-3.3,2.1-6.7,6.4-10.5
		c3.8-3.8,6.7-5.6,8.5-5.9c0.3,0,0.5,0.3,0.5,0.5c0,0.8-1,2.8-2.8,6.2c-3.3,4.1-5.1,6.7-5.1,7.7c0,0.3,0.3,0.5,0.5,0.5
		c1,0,2.6-1,4.6-3.3c2.1-2.1,4.1-4.4,6.2-6.7c2.1-2.6,3.8-4.9,5.4-7.4c1.5-2.6,2.3-4.4,2.1-5.4c0-0.3-0.3-0.5-0.5-0.5l-4.4,0.8
		c-1.5,0-2.3-0.5-2.3-1.5c-0.3-2.6,3.8-7.9,12-16.4c9-9,16.1-18.7,21.3-29.2c4.1-9.5,7.4-14.9,9.5-15.6c1.8,0,2.6-1.8,2.6-5.1
		c0-3.3,1-5.1,3.1-5.4c2.1-0.3,4.1-3.6,6.2-10c0.8-5.1,2.1-7.7,3.3-7.7c1.5,0,2.8,1.5,4.1,4.6c2.6,1.3,6.7,1.8,12.6,1.5
		c4.4-0.3,9.5-0.8,15.9-2.1c6.2-1.3,12.6-2.6,19-4.1c6.4-1.5,12.8-3.3,18.7-5.4c5.9-2.1,11-4.1,14.9-6.2c15.4-10,29-21.8,41-34.9
		l3.1-2.3l-27.4,13.8c-7.9,5.9-16.7,10.5-25.9,14.1c-9.2,3.6-18.7,5.9-29,7.4c-9-0.8-13.6-1.5-13.6-2.6c0-0.8,1-1.5,3.1-2.6
		c2.1-1,4.6-2.1,7.2-3.1c2.8-1,5.4-2.1,7.9-2.8c2.6-1,4.4-1.3,5.1-1.3c13.6-4.4,26.9-10.8,40.2-19.7c22.6-15.1,35.4-24.1,38.7-26.7
		c-0.3,2.3-0.8,4.6-1,7.2c-0.3,2.1-0.8,4.4-1,6.4c-1.8,0.8-3.3,1.3-3.3,1.5c0,0.8,0.5,1,1,1l1.5-0.5h0.3
		c-3.3,22.6-7.2,48.4-11.8,78.7c-1.5,8.5-2.6,12.6-3.3,12.6c-1,0-2.1,2.6-2.8,7.2c-1,14.1-6.4,38.7-15.9,73.8
		c-23.1,85.1-47.7,155.3-73.8,210.4c-18.5,36.7-31.5,55.9-39,58.2c-3.8,1.3-7.2,2.1-9.5,2.6c-2.3,0.5-3.8,0.8-4.6,0.8
		c-8.7,0.5-15.6-3.3-21-11.8c-5.4-8.2-9.2-17.9-12.3-29.2c-2.8-11.3-4.9-22.8-6.2-34.3c-1.3-11.8-2.1-20.8-2.3-27.2
		c-0.8-15.9-0.5-31,1-45.1c1-8.5,1.8-15.6,2.3-21.8c0.5-6.2,0.5-11.3,0.3-15.6c-0.3-7.9-2.1-11.8-4.9-11.8
		c-5.1,0.3-11,15.4-18.2,45.1c-5.9,22-10,42.6-12.3,62s-3.1,37.4-2.3,54.6c1.5,31.8,8.5,58.2,21.3,79.7c3.8,7.7,7.9,14.1,12,19
		c4.1,4.9,8.5,8.7,13.3,11.3s10.3,4.4,16.1,5.1c6.2,0.8,13.3,1,22,0.5c4.6-0.3,9.7-1.3,15.1-2.8c5.4-1.8,10.8-3.8,16.1-6.7
		c5.6-2.8,10.8-5.6,15.6-9c4.9-3.1,9.2-6.2,12.6-9.2c13.8-12.8,25.9-27.9,36.4-45.1c10.3-17.2,18.5-34.6,24.1-52
		c1.3-4.1,3.1-9.5,5.6-16.4c2.6-6.9,6.2-15.9,10.8-26.7c6.4-15.9,10-25.4,10.5-28.7c0.5-2.8,2.3-4.4,5.1-4.6
		c3.3-0.3,4.9-2.3,4.6-6.7c0-0.8,0-1.8-0.3-3.1c0-1.3-0.3-2.8-0.8-4.6c-0.5-1.5-0.8-2.8-0.8-4.4c0-1.5,0-2.8-0.3-4.4
		c0-2.8,0.3-4.6,0.8-5.4c1-1,2.1-3.1,3.3-6.2c1-2.8,2.3-6.2,3.3-9.7c1-3.6,2.1-6.9,2.8-10.3c0.8-3.3,1-5.9,1-7.7
		c-0.3-2.8,1-4.4,3.6-4.4c2.6-0.3,3.6-3.3,3.3-9.5c3.3-13.1,6.7-26.4,10.3-39.5s7.4-26.4,11.3-39.5c15.1-51.3,24.6-89.2,28.2-114.1
		c1-6.2,2.3-12.6,3.3-19s2.6-12.6,4.1-19c2.6-13.1,6.4-21,11.8-23.8c5.4-4.6,8.2-10.5,7.7-17.7c-0.3-7.2-2.6-14.9-6.4-22.8
		C2086,6353.5,2081.9,6346.8,2077.8,6340.6 M1722.8,6543.9c-6.9,5.6-12.8,8.5-17.4,8.7h-0.5c-3.8,0.3-6.2-3.6-6.4-11.5
		c-0.3-2.6,0.5-6.9,1.8-13.3s3.1-13.6,5.1-22c2.1-8.2,4.4-16.9,6.9-26.1c2.6-9.2,4.9-17.4,7.4-25.1c2.6-7.4,4.6-13.8,6.7-18.7
		c1.8-4.9,3.3-7.7,3.8-8.2c2.1-1.8,3.1-4.6,2.8-8.2c-0.3-3.8,1.8-8.5,5.9-13.3c1.8-2.6,3.6-5.6,5.4-9c2.1-3.3,3.8-6.9,5.4-11
		c3.3-8.2,6.9-12.8,11.3-14.1c3.6-0.5,7.9-3.6,13.1-9.2c4.9-5.4,8.5-7.9,11-7.9c2.3-0.3,3.3,2.6,3.6,7.9l-0.5,2.3
		c0.5,3.3,1.3,6.9,2.6,11c1,4.1,2.3,8.2,3.8,12.6c1.5,4.4,3.1,8.5,5.1,12.3c2.1,3.8,3.8,6.9,5.9,9.5c3.6,4.1,5.4,7.9,5.4,11
		c-0.3,3.6-2.3,9.2-6.2,16.9s-9.2,16.1-15.6,25.9c-6.4,9.7-13.6,19.7-21.3,30c-7.9,10.3-15.6,19.7-23.3,28.5
		C1737.2,6531.1,1729.7,6538.3,1722.8,6543.9 M1852,6471.1c-0.8,0.8-5.4,9.2-13.8,25.6c-4.4,7.7-10,16.7-16.7,26.4
		c-6.7,9.7-14.1,19.2-22.3,28.7c-7.9,9.5-16.4,18.2-25.1,25.9c-8.7,7.9-16.7,13.8-24.1,17.7c-3.6,2.3-6.4,3.6-8.5,3.6
		c-4.4,0.3-6.4-0.5-6.7-2.3c-0.3-3.3,4.9-8.2,15.6-14.9c8.5-5.4,16.7-12.3,25.1-20.5c8.2-8.2,16.1-16.9,23.8-26.4
		c7.7-9.2,14.9-19,21.5-28.7c6.7-9.7,12.6-18.7,17.7-26.9c7.4-12.6,12-19,13.6-19.2c1.8,0,2.8,1.3,2.8,4.1
		C1855.6,6467.8,1854.6,6470.1,1852,6471.1 M1874.8,6379.9c-1,3.8-2.8,8.2-5.4,13.6c-0.3-3.3,0.3-7.7,1-13.6
		c0.8-5.9,2.3-10,4.9-12.8c0.8,0.3,1,1.5,1.3,3.8C1876.6,6373.2,1876.1,6376.3,1874.8,6379.9 M1891.2,6363.7c1.3-0.3,2.1,0.3,2.3,1
		c0.3,0.8,0.5,1.5,0.5,2.1c0,2.1-0.3,3.3-1.5,3.3c-2.3-0.5-3.3-1.5-3.3-2.6C1889.2,6365.3,1889.7,6363.7,1891.2,6363.7
		 M1891.5,6393.5c-1.5-0.3-2.3-1.8-2.3-4.4l0.5-3.8c0.8-2.6,2.1-3.8,3.1-3.8c1,0.3,1.8,2.3,2.1,5.9
		C1894.6,6390.6,1893.8,6392.7,1891.5,6393.5 M1932.7,6838.7c-19.5,36.9-37.2,58.4-53.1,64.6c-4.4,1.5-9,2.6-14.1,2.8
		c-6.7,0.3-11.5-1.3-14.9-4.6c-1-1.3-1.8-2.3-1.8-3.1s1.8-1,5.1-1.3l6.7-0.3c12.8-0.5,29.7-15.9,50.2-45.9
		c8.2-12.3,13.3-19.7,15.6-22.3c2.1-2.1,3.8-5.1,5.4-9.2c0.3-1,1.5-3.3,3.3-6.4c2.1-3.3,3.8-6.4,6.2-10c2.1-3.3,4.4-6.4,6.7-9.2
		c2.3-2.8,4.1-4.1,5.6-4.1c0.3,0,0.5,0,0.5,0.5C1954.8,6794.6,1947.6,6811,1932.7,6838.7 M1975,6743.9c-1.8,5.6-3.8,11.3-6.4,16.9
		c-2.3,5.6-4.9,11-7.4,15.6c-2.6,4.6-4.6,7.2-5.9,7.7h-1c-1.8,0-2.6-1-2.8-3.1c0-1.3,0.8-2.8,2.6-4.4c2.1-0.8,3.8-4.4,5.1-10.8
		c3.1-11,6.7-21.3,11.3-30.5c1.3-3.6,2.8-5.4,4.9-5.4c1.3,0,2.1,1,2.3,3.1C1977.6,6734.6,1976.8,6738.2,1975,6743.9 M1992.5,6690.8
		c-2.3,9-4.1,14.1-5.6,15.6c-2.1,2.3-2.8,6.2-2.6,11.8c0.3,5.6-1.3,8.5-4.9,8.7c-3.1,0.3-4.9-0.8-4.9-2.3c0-1,0.5-2.1,1.5-3.1
		c0.3-0.8,0.8-1.8,1.3-3.3c0.8-1.5,1.3-3.3,1.8-5.9c7.4-22,12-33.1,13.6-33.3c0.3,0,0.5,0.5,0.5,1.5
		C1993.5,6682.6,1993.2,6686.2,1992.5,6690.8 M2002.7,6384.5c-12.6,7.4-21,11.5-24.4,11.8c9.5-7.7,17.7-13.6,25.4-18.5
		C2003.2,6380.1,2003,6382.4,2002.7,6384.5 M2089.9,6392.2c-2.1,1.3-3.6,1.8-4.4,1.8h-1c-1.8,0-2.8-0.8-2.8-2.6
		c0-1.8,1.5-3.1,4.6-3.6c2.8-0.3,4.4,0.5,4.4,2.1C2090.9,6390.6,2090.6,6391.4,2089.9,6392.2"/>
	<path class="st3" d="M2134.7,6199.4c3.1-8.5,5.6-15.1,7.2-19.7c0.3-1.5,0.8-2.8,1.5-4.1c0.5-1.3,1.3-2.8,2.1-4.6
		c4.1-9.7,6.2-16.4,6.2-20.3c0-1.5-0.3-2.3-0.8-2.8c-2.8-4.9-6.2-10.3-10.3-15.9c-4.1-5.9-8.7-11-14.1-15.9
		c-5.4-4.9-11-8.7-16.9-11.8c-5.9-2.8-12-4.4-18.5-3.8c-15.9,0.8-28.2,13.6-37.2,38.2c-6.4,21.3-9.5,38.7-9,52.5
		c1,23.8,10.5,40.5,28.5,50c4.9,3.1,7.4,5.6,7.4,7.7l-0.3,2.8c0,2.8,2.8,4.1,8.2,3.8c6.9-0.3,13.1-3.6,19.2-9.5
		c5.9-6.2,11-13.3,15.4-21.5C2127.8,6216.1,2131.7,6207.9,2134.7,6199.4"/>
	<path class="st3" d="M2470,6316c-7.4,8.7-17.2,19-29.2,31.3c-11.8,12-24.9,24.6-39,37.9c-14.1,13.1-29.2,26.1-44.9,39.2
		c-15.9,13.1-31.5,24.6-46.9,34.9c-15.6,10.3-30.8,18.7-45.6,25.4s-28.5,10.3-40.5,11c-9.7,0.5-19-1.8-27.4-6.9l-2.8-1.5
		c-4.1-2.3-6.2-4.9-6.2-7.2c0-0.5,0.3-2.1,0.8-4.9c1-2.3,1.3-4.9,1.3-8.2c-0.3-2.8-0.8-6.2-1.5-9.7c0-1.8-0.3-3.3-0.5-4.6
		c-0.3-1.3-0.3-2.6-0.5-4.1c-0.3-5.4,1.8-7.7,5.6-7.4l2.8,0.5c0.8,0,1-0.5,1-1v-0.5c0-0.8-0.3-1.3-0.5-1.5c-1.3-1.8-1.8-3.8-2.1-6.4
		c-0.8-13.6,2.8-20.3,10.5-20l8.7,0.8c14.4-0.8,27.7-4.1,39.5-10.3c12-6.2,23.6-13.6,34.6-22.6c20.3-15.6,32-23.8,35.6-23.8v0.5
		c0,3.3-2.8,7.7-8.7,13.3c-5.9,5.6-12.6,11.5-20.3,17.7c-7.7,6.2-15.4,11.8-23.1,16.9s-13.1,8.5-16.4,10.5
		c-3.3,0.5-7.9,2.1-13.8,4.9l-2.1,1.3c-1,0-2.8,0.8-4.9,1.8c-2.1,0.5-3.3,1.5-3.1,2.8c0,0.8,1,1.3,3.3,2.1c5.1,1.5,7.9,3.6,8.5,6.2
		c1.5,2.6,3.6,3.6,6.2,3.6c7.2-0.3,14.9-2.6,22.8-6.4c7.9-3.8,15.6-8.7,23.3-14.1s14.9-11.3,21.8-17.4c6.7-6.2,12.3-11.5,16.7-16.4
		c15.1-15.6,22.3-31.8,21.5-48.7c0-2.6-0.8-3.8-2.3-3.6c-0.8,0-3.3,2.3-8.5,6.9c-5.1,6.4-8.5,9.2-10.5,8.7l-2.3-0.5
		c0.5-4.1,2.6-8.7,5.9-14.4c4.4-6.9,6.4-12.6,6.4-16.4c-0.3-3.3-1.8-5.6-4.6-7.4c-3.3-0.8-5.1-4.1-5.4-9.5c-0.8-2.6-1.3-5.1-1.5-7.7
		c-0.3-2.8-0.3-5.4-0.3-8.5c-1.3-4.9-4.4-9.2-8.7-12.3c-4.4-3.3-9.5-5.9-14.9-7.7s-11.3-3.1-16.9-3.8c-5.9-0.5-11-0.8-15.6-0.5
		c-19.7,1-38.4,6.7-56.1,16.7c-14.4,10.5-27.7,22.8-40.5,37.4c-12.8,14.6-23.6,30.2-32.8,47.2c-9,16.9-16.1,34.3-21.3,52.8
		c-5.1,18.2-7.2,36.4-6.4,54.3c0.5,9.7,1.8,17.7,4.1,23.8c2.3,6.2,6.4,13.3,12,21.3c5.9,7.9,10.3,14.9,12.8,20.5
		c1.5,2.8,3.3,5.4,5.4,8.2c1.8,2.6,3.8,5.4,5.9,7.9c3.1,3.6,7.7,7.2,14.1,10.8c6.4,3.6,13.1,7.2,20.3,10.3
		c7.2,3.1,14.4,5.6,21.5,7.7s12.8,3.1,17.2,3.3c0.8,0,2.3-0.3,4.9-0.3c2.6-0.3,5.6-0.5,9.7-1c5.4-0.8,12.8-3.8,22.6-10
		c9.7-6.2,19.7-13.1,30.2-21c10.5-7.9,20.3-16.1,29.5-24.4c9.2-8.5,15.9-15.1,20.5-20.5c4.1-5.6,7.7-9.7,10.8-12.3
		c2.1-1.3,5.1-3.8,9.2-7.9c1-0.3,3.1-2.1,5.6-4.9c2.8-2.8,5.6-5.9,8.5-9.2s5.4-6.7,7.7-9.5c2.3-3.1,3.3-5.1,3.3-6.2
		c-1-0.3-3.6,1.3-7.4,4.6c-41.3,35.1-84.3,66.1-129.2,92.8l-2.1,1.3c-0.8,0.3-2.1,1-4.4,1.8c-0.3,0.5-1.3,0.5-2.6,0.8
		c-1.8,0-2.8-0.5-2.8-2.1c0.5-3.3,3.1-7.2,7.9-11.3c4.6-4.1,10-8.2,15.6-12c5.9-3.8,11.5-7.4,17.4-10.3c5.6-2.8,10-4.6,13.1-5.1
		c4.9-2.1,9.7-5.6,14.1-11c3.1-3.3,5.6-5.4,7.4-6.4c47.9-36.1,93.6-79.2,136.1-128.9c16.4-20,24.6-31.8,24.4-35.4
		c-1,0-10.3,8.5-27.4,25.1l-12.8,12.6c2.3-4.6,18.2-25.1,47.4-61.8c11.3-13.6,16.9-21.5,16.7-24.1c0-0.3-0.3-0.5-0.5-0.5
		C2501.5,6282.5,2490.3,6293.7,2470,6316 M2217,6360.6c3.1-5.1,6.9-10.3,11.5-15.1c4.6-4.9,9.7-9.5,15.4-13.6
		c5.6-4.1,11.5-7.4,17.7-10c6.2-2.8,12.3-4.1,17.9-4.4c6.2-0.3,9.2,1.8,9.5,6.7c0.3,5.6-2.3,11.5-7.7,17.2
		c-5.4,5.6-11.5,10.8-19,15.4c-7.4,4.4-14.9,7.9-22.8,10.8c-7.7,2.8-14.1,4.4-19.2,4.6c-4.1-0.5-6.2-1.8-6.2-4.1
		C2213.9,6365.5,2215,6363.2,2217,6360.6"/>
	<path class="st3" d="M1680.3,5964.1c0.8-3.6,2.1-8.5,3.3-14.6c1.3-5.9,3.1-13.3,5.1-22c9.2-32.6,12.3-64.3,9-95.4
		c-1.3-26.9-10-46.7-25.9-59.5c-15.9-12.6-37.2-20-63.6-22.3c-26.9,2.8-51.5,15.4-74.1,38.2c-12,12-22.8,23.6-32.6,34.6
		c-9.7,11-17.7,21.8-24.4,32.6c-3.6,7.2-14.4,23.8-32.3,50.8c-8.5,11.5-22,33.8-40.8,66.9c-17.7,32-25.9,51.5-24.6,59.2
		c0,1.5,0.5,2.6,1.3,3.1c2.8-0.3,19.2-23.6,49.2-70c16.9-26.4,30.5-48.4,41.5-66.4c10.8-17.9,19-31.5,24.4-41.3
		c12-16.9,21.3-28.5,26.9-34.9c5.9-6.4,10.8-9.7,14.6-10l-7.9,17.7c-3.1,5.1-6.2,10.5-9.5,15.6c-3.3,5.1-7.2,11-11,17.4
		c-14.9,22-23.1,35.9-24.6,41.8c-1.3,4.9-9.7,17.7-25.6,38.7c-9.2,12-18.7,26.1-28.5,42.6c-9.7,16.4-20,34.6-30.8,54.6
		c-4.4,8.5-12.6,24.4-24.6,47.4c-12,23.1-27.9,53.8-47.9,92c-5.9,11-12,22-18.5,32.8c-6.4,10.8-13.1,21.5-20,32.3
		c-5.9,7.4-9.5,11.3-10.8,11.3c-0.3,0-0.5-0.5-0.5-1.5c-0.8-3.8,3.1-15.9,12.3-36.4c9.7-23.3,15.1-35.4,16.1-36.7l25.6-41.3
		l-4.1-6.9l-8.7,1l-25.1,27.2c-1.5,0-2.1,0-2.1-0.5l0.3-3.8c2.1-8.2,3.1-13.3,3.1-15.9c-0.5-2.1-1.5-3.1-2.8-3.1
		c-2.3,0-3.6-1-4.1-3.6l-1-8.7c0.3-3.3,0.8-11.3,1.8-23.8c1-12.6,2.6-30,4.9-51.8c7.4-58.7,8.5-112.5,3.6-161.5
		c-7.2-66.9-43.6-108.9-109.5-126.4c-7.9-0.8-16.1-0.8-24.4-0.5c-25.9,1.3-50.2,7.9-73.1,19.7c-22.8,12-43.8,25.9-63.3,42
		c-55.6,46.7-97.4,90.7-125.9,132.3c-1.8,2.6-2.6,5.6-2.3,9.2c0.3,3.6,1,5.9,2.8,6.9c1.5,1,4.1,1.5,7.4,1.3
		c5.1-0.3,12-5.9,21.3-16.7c5.9-7.2,11-13.6,15.6-19.7c4.6-6.2,8.7-11.5,12.6-16.9c9.7-13.1,20.5-25.9,32-38.4
		c11.5-12.6,24.1-24.9,37.4-36.7c17.7-13.6,30-20.5,36.4-21.3c1.5-0.3,2.1,0.5,2.3,1.5c0,1.8-4.6,6.7-14.4,14.9
		c-14.4,11.8-26.9,22.8-37.9,33.1s-21.3,20.8-31,31.3c-9.5,10.5-19,22-27.9,33.8c-9,12-18.7,25.6-29.2,41.5c-2.3,3.8-4.6,7.4-6.7,11
		c-2.3,3.8-4.1,7.7-5.6,11.5c-1.8,4.1-3.3,7.9-5.4,11.3c-2.1,3.6-4.1,6.9-6.7,10.3c-23.8,30.8-44.9,67.2-63.1,109.2
		c-15.6,35.4-25.1,53.3-28.7,53.8c-1.8,0-3.8-2.8-6.4-8.5c-2.8-5.6-5.4-8.5-7.9-8.2l-1,0.5c-2.8,2.1-3.8,6.4-3.1,13.6
		c1,7.9,3.6,13.1,7.2,15.4c4.1,3.1,6.4,7.7,6.7,13.8c0.5,10.5-2.1,21-7.7,31.8c-7.7,9.7-12.8,20.3-15.1,31
		c-0.8,5.1-2.3,10.5-4.1,15.9c-8.2,18.7-15.9,31.8-23.6,39c-3.8,4.1-5.6,6.7-5.6,7.9v0.5c0.8,1,5.6,1.8,14.6,2.1
		c-1.3,0.8-2.8,1.8-4.1,3.3c-1.3,1.5-2.8,3.3-4.1,5.6c-1.8,2.1-2.8,5.1-3.3,10c-1,9.5-2.1,18.5-3.3,26.9c-1.3,8.5-3.1,16.9-5.6,24.9
		c-5.9,22-9,39.5-9.2,53.1c-0.3,4.4-0.3,8.7-0.3,13.1c0,4.4,0.3,8.5,0.8,12.3c0.5,9.2,0.8,17.4,0.8,24.6c0,6.9-0.5,12.8-1.3,17.2
		c-2.3,10-3.8,16.4-4.4,19.7c-0.5,3.8-1,7.9-1.3,12.3c-0.3,4.1-0.3,8.5,0.3,13.3l0.3,14.6h-0.5H728l-0.5-1c-1.5-2.3-3.8-3.8-6.7-4.6
		c-2.6-1-4.4-1.5-5.4-1.3l-1,1l2.8,4.9c2.3,2.8,5.1,5.9,8.5,9.2c1.5,1.8,3.1,3.3,4.6,4.6c1.5,1.3,3.1,2.8,4.6,4.6
		c3.1,3.1,4.9,5.6,5.4,7.9l4.1,15.6c1,8.2,4.6,18.2,10.3,30c5.6,11.5,12.8,22.8,20.8,33.6c8.2,10.8,17.2,20,27.2,27.9
		c10,7.9,19.7,11.8,29,12c8.7-0.5,13.3,1,14.4,4.6c0,2.8,2.3,5.4,6.4,7.2c4.1,2.1,9,3.6,14.4,5.1c5.4,1.3,10.8,2.3,16.1,3.1
		c5.4,0.8,9,1,11,0.8l3.8-0.8c6.7-2.6,9.5-7.2,8.5-13.8c-0.8-6.2-5.4-12-13.8-17.7c-39.7-35.9-62-79.2-66.9-129.4
		c-0.5-4.4-1-9.2-1.3-14.6c-0.3-5.4-0.3-11.3,0.3-17.9c-1.3-79.7,7.7-158.4,26.9-235.8c19.2-77.4,46.1-152,80.5-223.8
		c8.5-18.2,19.5-38.2,32.6-60.5c13.1-22,28.5-46.4,46.1-72.8c35.6-53.1,70-89.7,102.5-110c12.6-6.7,25.4-10.8,37.9-12
		c14.4,0.3,25.9,7.4,34.1,21c1.8,1.8,3.3,3.3,4.6,4.9c1,1.5,2.3,2.8,3.3,3.8c11.5,6.4,17.7,13.3,19,21.3c0.5,4.4,0.5,9-0.5,13.6
		c-0.8,4.9-2.1,10-3.6,15.9l-2.3,8.2c-1.5,5.9-2.6,10.5-3.3,14.4c-0.8,3.6-0.8,6.4-0.5,8.2c0.3,3.6,4.4,10,12.8,19
		c0.8,1,1.3,2.3,1.8,3.8c0.5,1.5,0.8,3.1,1.3,4.9c0.8,9-2.8,25.1-11.3,48.7c-5.1,14.6-7.9,26.9-8.5,36.7l0.8,7.4
		c0.8,1.3,1.5,2.6,2.3,3.6c2.6,3.1,4.1,6.2,4.1,9c0.8,7.4-3.8,32.3-13.8,74.3c-4.9,25.1-8.7,44.6-11.3,58.4
		c-2.6,13.8-3.6,22-3.1,25.1c0.3,4.4,2.1,7.9,5.4,11c1,1,1.8,2.1,2.3,3.1c0.5,1,0.8,2.1,1.3,3.1c0.3,2.6-2.3,7.2-6.9,14.4
		c-16.4,28.2-23.8,57.4-22.3,87.7c-0.3,10.5-1,21-2.6,31.5c-1.5,10.5-3.8,21-6.9,31.8c-3.3,8.5-6.2,14.1-9,16.7
		c-3.1,3.3-4.6,6.2-4.6,8.5c0.8,2.8,2.8,5.9,6.4,9c3.8,3.3,7.2,6.9,10.3,10.3c3.1,3.3,6.2,7.2,9.2,11c7.7,10.8,15.6,19.2,23.6,25.4
		c7.9,6.2,18.5,10.8,31.3,14.1l5.9-0.3c11.8-1,22-12.6,30.8-34.6c2.8-8.2,5.1-14.9,6.9-20.3s2.8-9.2,3.6-11.8
		c14.6-47.2,30.8-90.7,48.4-130c26.7-60.2,78.9-159.7,156.9-298.9c14.1-24.1,25.4-43.8,34.3-59c9-15.1,15.6-26.1,20.3-32.8
		c14.4-19.2,23.1-32.8,26.1-41.3c3.1-4.9,6.9-9.5,11.8-14.1s10.3-7.4,16.4-8.5c1,0,3.1,0.3,5.9,0.8c4.4,0.8,8.7,1.3,13.1,1.5
		c4.4,0.3,8.7,0.3,13.6,0c6.4-0.3,9.7,1.3,10,4.9c0.8,3.6-2.8,6.9-11,10.3c-9.2,4.6-13.6,9.5-13.3,14.1c1.5,0.3,2.8,0.5,4.1,0.5
		s2.8,0,4.6,0c1.8-0.5,3.8-1,5.9-1.8c2.1-0.5,4.4-1.8,6.9-3.3l3.6-1.8c0.8,0,1,0.3,1,0.5c0,1-2.8,6.4-8.5,15.6
		c-1.8,2.6-3.1,5.1-4.1,7.7c-1.3,2.6-2.3,5.4-3.8,8.5c-2.3,6.9-4.1,10.8-5.9,11.5c-5.6,2.6-11.3,7.9-16.7,16.7
		c-5.6,8.7-10.8,19.2-15.6,31c-4.9,12-9.2,24.9-13.6,39c-4.1,13.8-7.9,27.7-11,41.3s-5.4,26.4-7.4,37.9c-1.8,11.8-2.8,21.3-3.1,29
		c0.8,1.8,2.3,2.6,4.4,2.6h2.8c0.8-0.5,1.5-0.8,2.3-1.3c0.8-0.3,1.5-0.8,2.3-1.3c1.8-1,2.8-1.8,3.1-1.8c1-0.5,1.8-1.8,2.1-3.8
		c0.5-5.4,1.5-12.8,3.3-22s3.8-19.2,6.4-30c2.6-10.8,5.4-21.8,8.5-33.1c3.1-11,6.4-21.3,10-30.5c3.6-9.2,7.2-16.7,10.8-22.6
		c3.8-5.6,7.4-8.7,11-9c0.8,0.8,1.3,1.5,1.8,2.8s0.8,3.1,0.8,5.1c1,6.4,0,16.7-2.6,31c-2.8,14.1-7.2,32.6-13.3,55.4
		c-5.1,19-9.2,33.8-12.3,44.6c-2.8,10.8-5.1,17.7-6.4,20.8c-4.4,15.6-8.5,31.3-12,46.9c-3.8,15.6-7.4,31-10.5,46.1
		c-5.1,21.5-10.5,41.5-16.4,59.7c-5.9,18.5-12,35.4-18.5,51.3c-3.6,9.2-7.4,19.2-11.5,30.2c-4.1,11-8.5,23.1-12.8,36.4l-2.8,8.2
		l-0.3-3.3c0.3-2.6,0.3-5.1,0.5-7.9c0-2.8-0.3-5.4-0.8-8.5c-0.8-6.7-3.1-13.6-6.9-20.3l0.5-0.5c4.4-0.8,8.5-4.1,12.6-9.2
		c3.8-5.9,5.1-12.3,4.6-19.2v-1c-1.3-1.3-2.8-2.1-5.1-1.8c-1.8,0-4.1,1-6.9,2.6c3.8-2.8,6.2-6.2,6.7-10c0.8-4.1,1-8.2,0.8-12.6
		c-0.5-12,1.5-19.5,6.4-22.6l5.4-1.3c7.4-2.1,11-5.1,11-9.2c0-0.8-0.8-2.6-2.6-5.4l-6.7-1.8l-1,0.5c-16.7,9.2-26.1,25.4-28.5,49
		c-0.8,2.6-1,4.6-0.8,6.4c0.3,1.5,0.3,2.8,0.3,4.1c0,1.8,0.5,3.1,1,4.4c0.5,1,2.1,1.5,4.1,1.3c-2.6,1.3-4.9,3.8-7.2,7.4
		c-2.3,3.8-3.6,7.2-3.3,10c0.5,2.6,1.5,4.9,3.1,6.9c-2.6,1-4.9,3.6-7.2,8.2c-2.3,4.6-4.4,9.7-6.4,15.4c-1.8,5.6-3.6,11.3-4.6,16.7
		c-1,5.4-2.1,9.2-2.6,11.5c-3.8,16.4-4.9,33.8-2.8,52.3c4.4,44.1,26.7,80.2,67.4,108.2c16.1,12.3,25.9,17.9,29.5,17.4
		c2.6-0.3,3.3-2.8,2.3-8.2c-0.3-3.6-1.3-9.5-3.6-17.7c-0.5-4.6-1.3-10-2.3-16.1c-4.4-44.1,8.2-113.8,37.2-209.2
		c0.3-1.5,0.5-2.8,1-3.8c0.3-1,0.5-2.3,0.8-3.3c9-31.5,17.2-62.8,24.6-93.8c10.8-44.9,22.8-88.7,35.9-131.8
		c8.7-28.7,16.7-56.9,23.8-84.8C1668,6020.7,1674.4,5992.6,1680.3,5964.1"/>
	<path class="st3" d="M2808.9,6298.6c-16.1-10.3-34.3-15.4-55.1-15.4c-15.4,0-29,2.8-40.5,8.2c-11.5,5.4-21.3,12-29.2,19.7v-23.1
		h-65.1v321.7h65.1v-120c7.9,7.7,17.7,14.4,29.2,20c11.5,5.6,25.1,8.5,40.2,8.5c20.3,0,38.4-5.1,54.6-15.6
		c16.1-10.3,28.7-24.6,37.7-42.8c9-18.2,13.6-38.2,13.6-60c0-22-4.4-41.8-13.3-59.5C2837.6,6322.7,2825,6308.6,2808.9,6298.6
		 M2784.5,6432.9c-5.1,9.2-12,16.7-21,22c-9,5.4-19.2,7.9-30.8,7.9c-10.8,0-20-2.1-27.9-6.2c-7.9-4.1-14.6-9.2-20.3-15.6v-81
		c5.6-6.2,12.3-11.3,20.3-15.4c7.9-4.1,17.2-6.2,27.9-6.2c11.5,0,21.8,2.6,30.8,7.7c9.2,5.1,16.1,12.6,21,22
		c5.1,9.5,7.4,20.3,7.4,32.3C2792,6412.9,2789.4,6423.4,2784.5,6432.9"/>
	<path class="st3" d="M3045,6283.7c-2.6-0.5-5.9-0.5-9.5-0.5c-15.1,0-28.7,4.4-41,13.1c-12,8.7-22.6,19.2-31,31.3v-39.5h-66.1v225.3
		h66.1v-126.1c7.7-10.8,17.2-20.3,28.7-27.9s24.9-11.8,40.5-11.8c4.4,0,7.9,0.3,10.8,0.5c2.8,0.5,4.4,0.8,5.1,0.8l4.9-63.1
		c-0.3-0.3-1-0.5-2.6-0.8C3049.3,6284.5,3047.5,6284.3,3045,6283.7"/>
	<polygon class="st3" points="3182.1,6446.8 3132.4,6288.1 3062.9,6288.1 3142.6,6513.2 3219.3,6513.2 3300.8,6288.1 3234.1,6288.1 
			"/>
	<path class="st3" d="M3509.9,6294.8c-13.1-7.7-28.7-11.5-46.9-11.5c-16.4,0-30.8,3.1-42.6,9.5s-21.8,13.8-29.2,22.3v-26.9h-65.4
		v225.1h65.4v-147.4c5.4-7.2,12-13.3,20-18.5c7.9-5.1,17.4-7.4,28.5-7.4c13.8,0,24.6,4.1,32.3,12.6c7.7,8.5,11.5,20,11.5,34.9v126.1
		h66.1v-139.2c0-17.7-3.3-33.6-10-47.2C3532.8,6313.2,3523,6302.5,3509.9,6294.8"/>
	<polygon class="st3" points="3576.9,6259.6 3686.6,6233.8 3686.6,6181.2 3576.9,6210.4 	"/>
	<rect x="3599.4" y="6288.1" class="st3" width="66.9" height="225.3"/>
	<polygon class="st3" points="3963.7,6288.1 3911.6,6446.8 3861.9,6288.1 3792.4,6288.1 3872.1,6513.4 3948.8,6513.4 4030.3,6288.1 
			"/>
	<path class="st3" d="M4212.8,6297.6c-18.5-9.7-40-14.6-64.3-14.6c-23.3,0-44.1,4.9-62.8,14.6c-18.5,9.7-33.1,23.6-43.6,41.5
		c-10.5,17.9-15.9,38.4-15.9,62c0,22.3,5.1,42.3,15.1,60.2c10,17.7,24.1,31.8,42.8,41.8c18.5,10,40,15.1,64.3,15.1
		c23.6,0,44.6-5.1,63.1-15.4c18.7-10.3,33.3-24.4,43.6-42.6c10.5-18.2,15.6-38.7,15.6-61.8c0-22.6-5.1-42.8-15.1-60.2
		C4245.6,6320.9,4231.5,6307.3,4212.8,6297.6 M4199.7,6434.2c-4.9,9.5-11.5,16.9-20.5,22c-8.7,5.4-19,7.9-30.8,7.9
		c-11.5,0-21.8-2.8-30.5-7.9c-9-5.4-15.9-12.6-20.8-22c-4.9-9.5-7.4-20.5-7.4-32.8c0-12.6,2.3-23.8,7.2-33.3
		c4.9-9.7,11.5-17.2,20.5-22.8c8.7-5.4,19.2-8.2,31-8.2c11.5,0,21.5,2.8,30.5,7.9c8.7,5.4,15.6,12.8,20.5,22.6
		c4.9,9.7,7.4,20.8,7.4,33.3C4206.9,6413.7,4204.3,6424.5,4199.7,6434.2"/>
	<rect x="4307.9" y="6174.8" class="st3" width="67.2" height="338.6"/>
</g>
</svg>
