<svg width="220" height="160" fill="none" xmlns="http://www.w3.org/2000/svg">
<path d="M160.019 160h-160V0h160v43.88a3.493 3.493 0 01-3.527 3.527 3.493 3.493 0 01-3.528-3.527V7.055H7.074v145.89h145.89v-35.979a3.493 3.493 0 013.528-3.527 3.493 3.493 0 013.527 3.527V160zM201.784 48.96c.282-5.785.987-11.57 1.975-17.214 2.681-14.391 5.079-19.753 5.644-17.072.282 1.834-.142 7.337-2.258 16.226-1.411 6.208-3.527 12.698-5.361 18.06zM191.06 70.688c-7.478 12.275-13.686 19.47-16.366 20.035-.424.141-.565-.282-.706-.846-.846-4.374 4.092-23.704 11.852-25.256 1.975-.423 3.668.141 5.079 1.129l.141 4.938zm26.385 5.361l-.564.847c-3.669 5.644-6.35 8.466-8.325 8.889-2.54.423-4.374-3.245-5.644-9.453-.705-3.669-1.27-8.325-1.411-13.263 7.478-12.98 14.815-41.058 12.699-51.923-.847-4.232-3.245-7.478-6.491-6.913-3.527.705-8.042 6.631-11.851 22.716-1.976 8.183-4.092 20.317-4.798 32.028-2.398-1.693-5.643-2.54-9.171-1.834-11.993 2.398-21.164 23.563-19.047 34.568 1.27 6.631 6.208 9.03 10.582 8.183 6.49-1.27 13.404-10.582 18.765-19.753 1.834 8.184 5.926 14.11 12.981 12.699 6.49-1.27 10.864-8.89 13.968-14.392l.706-1.41c.846-1.553-1.976-1.553-2.399-.989z" fill="#fff"/><path d="M160.159 74.216c-.423-4.233 2.681-9.03 1.552-11.288-.988-2.398-4.797-3.245-7.055-2.398-2.257.846-4.938 3.809-7.478 7.336 0-1.128-.141-2.116-.423-2.68-1.129-2.822-6.631-4.092-8.889-3.105-.564.283-.564.565-.564 1.13.705 6.066 0 13.826-.706 19.047-1.129 10.44-3.95 18.906-5.785 20.6-.564.423-.987.846-1.552.987-1.27.423-2.116-.282-2.539-1.834-.988-3.386.141-11.146 1.128-15.097.565-2.116-4.797-4.656-7.76-3.81-.846.283-1.693.706-2.116 1.835-4.515 10.582-6.632 13.545-10.159 19.188-7.76 12.558-9.03 5.221-4.938-5.784 3.668-8.607 9.453-16.367 18.201-21.729 1.552-1.129-3.386-6.35-8.042-4.938-11.288 3.386-18.625 17.495-20.882 29.63l-.141.141c-9.877 11.569-25.115 24.691-35.98 27.936-9.17 2.822-14.955 0-18.341-11.005-8.043-26.385 15.661-67.443 25.96-70.406 5.645-1.552 4.516 10.159-.14 19.612 3.668 3.528 6.631 4.374 8.889 3.669 13.262-3.387 13.686-41.623-10.3-34.71-25.538 7.479-45.855 57.708-37.108 86.35 4.092 13.404 14.11 22.716 30.053 17.778 13.545-4.092 27.937-17.214 36.826-28.36.14.846.282 1.693.564 2.398 1.693 5.362 5.08 6.632 8.183 5.644 7.055-2.116 13.404-14.391 17.496-21.305 0 8.607 4.515 11.993 9.312 10.864 3.81-.846 8.042-3.245 9.877-6.208 3.95-5.926 5.502-12.275 7.478-20.74 2.116-5.362 4.656-9.877 6.631-11.57.282-.282.564 0 .423.423-.423 3.95-.282 6.914.847 9.735.846 1.411 1.834 2.963 5.926 1.694 5.502-2.117 1.693-6.914 1.552-8.748.141.14 0 0 0-.282zM94.129 27.09c-1.41 0-2.399-.988-2.399-2.54 0-1.41.988-2.54 2.399-2.54.988 0 1.693.565 1.975.988v3.104c-.282.424-.987.988-1.975.988zm1.975-11.57v5.644c-.423-.423-1.41-1.27-2.822-1.27-2.54 0-4.232 2.117-4.232 4.798 0 2.68 1.834 4.656 4.233 4.656 1.41 0 2.398-.706 2.821-1.27v.987h2.681V15.52h-2.68zm-12.557 4.374c-1.41 0-2.399.706-2.822 1.27v-.987h-2.68v9.03h2.68V23.28c.282-.424.988-.988 1.976-.988 1.128 0 1.693.705 1.693 1.834v5.08h2.68v-5.644c-.14-2.117-1.27-3.669-3.527-3.669zM70.849 27.09c-1.411 0-2.399-.988-2.399-2.54 0-1.41.988-2.54 2.399-2.54.987 0 1.552.424 1.975.847v3.245c-.423.565-.988.988-1.975.988zm1.975-7.055v.988c-.564-.564-1.552-1.129-2.822-1.129-2.54 0-4.233 2.117-4.233 4.798 0 2.68 1.693 4.656 4.233 4.656 1.411 0 2.258-.706 2.822-1.13v.988h2.68v-9.03h-2.68v-.14zM60.83 29.206h2.68V15.521h-2.68v13.685zm-3.386-11.71a2.53 2.53 0 011.41.423l.424-2.116s-.706-.565-2.399-.565c-2.257 0-3.668 1.27-3.668 3.669v1.128h-1.27v2.258h1.27v6.913h2.68v-6.913h3.105v-2.258h-3.104v-.846c0-1.129.564-1.693 1.552-1.693zm-10.3 2.54v5.925c-.282.424-.988.988-1.975.988-1.13 0-1.694-.705-1.694-1.834v-5.08h-2.68v5.644c0 2.117 1.27 3.669 3.527 3.669 1.411 0 2.399-.706 2.963-1.27v1.128h2.68v-9.03h-2.821v-.14zM33.74 27.09c-1.41 0-2.399-.988-2.399-2.54 0-1.41.988-2.54 2.399-2.54.988 0 1.552.424 1.975.847v3.245c-.423.565-.987.988-1.975.988zm1.975-7.055v.988c-.564-.564-1.552-1.129-2.822-1.129-2.54 0-4.232 2.117-4.232 4.798 0 2.68 1.693 4.656 4.233 4.656 1.41 0 2.257-.706 2.821-1.13v.988h2.681v-9.03h-2.68v-.14zm-7.76 9.171l-5.22-6.913 5.22-6.631H24.43l-4.515 6.349v-6.49H16.81v13.685h3.104V23.14l4.515 6.066h3.527z" fill="#fff"/>
</svg>
