<svg viewBox="0 0 5669.29 6831.5" xmlns="http://www.w3.org/2000/svg"><path d="m0 0h5669.29v5669.3h-5669.29z" fill="#fff"/><g fill="#e10915"><path d="m216 5453.29h5237.28v-5237.29h-5237.28zm5021.31-216h-4805.31v-4805.29h4805.3z"/><path d="m1864.78 2271.15h957.77v957.78h-957.77z"/><path d="m2966.58 2270.64v958.29h958.29z"/><path d="m1864.78 1169.4h957.77v957.77h-957.77z"/><path d="m2966.58 1169.39v958.29l958.29-958.29z"/><path d="m1415.49 3795.17h-176.67l-228.3 318.62v-318.62h-155.81v694.79h155.81v-312.63l228.3 312.63h180.65l-267.99-355.34z"/><path d="m2315.56 4331.15c-17.88 22.83-49.61 52.6-99.26 52.6-56.6 0-90.32-36.72-90.32-97.27v-259.06h-135.98v285.85c0 109.2 62.52 186.63 177.67 186.63 76.41 0 124.07-39.71 147.89-65.54v55.64h134v-462.58h-134z"/><path d="m3548.76 4076.07c-27.82-26.78-75.46-58.59-141.95-58.59-129 0-218.38 107.2-218.38 243.19 0 134 88.32 239.24 218.38 239.24 70.46 0 117.12-32.77 141.95-57.59v47.68h134v-462.58h-134zm0 266c-18.88 20.83-50.63 43.66-98.26 43.66-71.48 0-122.09-51.61-122.09-127s50.61-127 122.09-127c47.63 0 79.38 22.79 98.26 43.66z"/><path d="m1760.2 4076.07c-27.8-26.78-75.46-58.59-141.95-58.59-129 0-218.36 107.2-218.36 243.19 0 134 88.32 239.24 218.36 239.24 70.49 0 117.12-32.77 141.95-57.59v47.68h134v-462.58h-134zm0 266c-18.86 20.83-50.63 43.66-98.29 43.66-71.44 0-122.07-51.61-122.07-127s50.63-127 122.07-127c47.66 0 79.43 22.79 98.29 43.66z"/><path d="m4680.62 3795.17v284.83c-23.83-24.78-72.48-62.54-146.92-62.54-130 0-218.36 107.2-218.36 243.19s90.32 239.24 218.36 239.24c74.44 0 123.09-36.72 146.92-62.54v52.65h134v-694.83zm0 540.93c-17.88 22.87-51.63 49.65-103.21 49.65-71.48 0-122.09-51.61-122.09-127s50.61-127 122.09-127c51.59 0 85.33 26.78 103.21 49.61z"/><path d="m4062.87 4017.48c-75.46 0-124.11 39.71-146.92 65.54v-55.6h-134.95v462.58h135v-303.77c16.88-23.83 48.63-52.6 99.26-52.6 56.58 0 89.32 36.76 89.32 97.27v259.1h136v-285.89c0-109.2-62.54-186.63-177.65-186.63"/><path d="m2805.84 3897.38c45.66 0 72.46 19.88 72.46 19.88l21.85-103.26s-36.74-28.78-124.09-28.78c-113.15 0-183.64 65.54-183.64 187.63v54.56h-68.49v111.2h68.49v351.39h138v-351.38h156.84v-111.2h-156.86v-42.66c0-58.59 26.78-87.37 75.43-87.37"/><path d="m2965.13 3795.17h137.98v694.79h-137.98z"/></g><path d="m0 0h5669.29v5669.3h-5669.29z" fill="none"/><path d="m432.42 6140h198.58c164.38 0 257.36 96.69 257.36 257.36 0 166.61-107.85 263.31-267.77 263.31h-188.17zm195.58 428.41c87 0 140.58-61.74 140.58-168.1 0-108.6-52.07-165.12-141.32-165.12h-75.83v333.22z" fill="#e10915"/><path d="m953.83 6488.07c0-110.08 80.33-181.49 188.93-181.49 113.8 0 188.18 72.15 188.18 177.77 0 107.11-78.84 183.72-188.93 183.72-115.29.01-188.18-76.61-188.18-180zm277.44 0c0-58.76-35.7-97.44-88.51-97.44-55 0-89.26 39.42-89.26 98.18 0 56.53 35.7 95.21 89.26 95.21 54.29-.02 88.51-39.42 88.51-95.95z" fill="#e10915"/><path d="m1778.7 6485.84c0 102.65-67.69 182.23-163.64 182.23-52.07 0-87-24.55-106.36-43.14v36.45h-101.16v-521.38h101.16v209.75c19.34-18.6 54.3-43.14 106.36-43.14 97.44-.02 163.64 78.08 163.64 179.23zm-105.62 1.49c0-55.79-37.93-94.46-91.49-94.46-35.7 0-58.76 17.11-72.89 32.73v123.47c14.13 15.62 37.19 32.73 72.89 32.73 53.55-.01 91.49-38.68 91.49-94.47z" fill="#e10915"/><path d="m2096.29 6310.3-7.44 98.18s-8.18-2.23-24.55-2.23c-52.81 0-87 35-106.36 61v193.39h-102.64v-346.64h102.65v61c21.57-31.24 59.5-68.43 110.83-68.43 19.33.02 27.51 3.73 27.51 3.73z" fill="#e10915"/><path d="m2148.36 6738.74c54.3 0 89.26-23.8 107.85-70.66l11.16-24.55-133.88-329.53h111.57l78.1 224.63 75.12-224.63h101.16l-125 343.64c-37.19 112.31-106.36 159.17-226.12 159.17zm85.54-544.47 169.59-45.37v81.82l-169.59 40.17z" fill="#e10915"/><path d="m3016.38 6646.5s-28.26 21.57-94.46 21.57c-84.79 0-137.6-46.12-137.6-138.35v-133.88h-49.09v-81.84h49.09v-124.19h104.88v124.19h117.52v81.82h-117.54v116c0 43.88 20.08 64 55.79 64 35 0 55-14.88 55-14.88z" fill="#e10915"/><path d="m3069.18 6738.74c54.3 0 89.26-23.8 107.85-70.66l11.16-24.55-133.89-329.53h111.57l78.1 224.63 75.13-224.63h101.16l-125 343.64c-37.19 112.31-106.36 159.17-226.12 159.17zm85.54-544.47 169.59-45.37v81.82l-169.59 40.17z" fill="#e10915"/><path d="m3464.88 6583.28 174.79-188.18h-170.33v-81.1h302.73v78.1l-173.31 187.44h180v81.07h-313.88zm43.12-368.93v-67.69l114.55 46.86 113.8-46.86v67.69l-113.8 55.79z" fill="#e10915"/><path d="m4201.25 6140v520.66h-101.9v-38.66c-17.85 18.6-54.3 46.12-110.08 46.12-95.21 0-162.89-77.36-162.89-179.26s66.2-182.23 162.89-182.23c55.79 0 92.23 27.52 110.08 46.12v-212.75zm-101.9 406.12v-117.55c-13.39-16.36-37.93-35.7-76.61-35.7-53.55 0-90.74 38.68-90.74 94.46s37.19 94.46 90.74 94.46c38.67 0 63.26-19.34 76.61-35.7z" fill="#e10915"/><path d="m4629.68 6517.83-250.66-.74c10.41 48.35 45.37 72.15 100.41 72.15 71.41 0 104.88-35 104.88-35l34.22 61.74s-44.63 52.07-145.79 52.07c-119.75 0-194.88-71.41-194.88-181.49 0-104.13 69.17-180 180.74-180 107.11 0 171.08 74.38 171.08 182.23zm-93.68-64.71c-3-40.17-30.5-73.64-78.1-73.64-40.91 0-71.41 26-80.33 73.64z" fill="#e10915"/><path d="m5049.92 6446.42v214.22h-102.65v-194.14c0-44.63-25.29-72.15-66.94-72.15-36.45 0-60.25 21.57-73.64 38.68v227.6h-101.9v-346.63h101.9v40.17c17.85-18.6 53.55-47.6 110.08-47.6 86.29.02 133.15 58.03 133.15 139.85zm-167.36-176.28-114.56-55.79v-67.69l114.55 46.86 113.8-46.86v67.69z" fill="#e10915"/><path d="m5123.55 6613.78c0-32.73 23.8-55.79 56.53-55.79 35.7 0 56.53 22.31 56.53 55 0 32-21.57 55-55.79 55-33.47.09-57.27-22.23-57.27-54.21z" fill="#e10915"/></svg>