<svg enable-background="new 0 0 104.168 144" viewBox="0 0 104.168 144" xmlns="http://www.w3.org/2000/svg"><path d="m2.484 0h99.2v99.2h-99.2z" fill="#fff"/><g fill="#e3000f"><path d="m6.734 4.3v90.7h90.7v-90.7zm86.4 86.4h-82.2v-82.2h82.2z"/><path d="m35.034 40.2h16.6v16.6h-16.6z"/><path d="m35.034 20.8h16.6v16.6h-16.6z"/><path d="m54.434 56.8h16.6l-16.6-16.6z"/><path d="m54.434 20.8v16.6l16.6-16.6z"/><path d="m54.334 66.2h2.4v12h-2.4z"/><path d="m84.034 66.2v4.9c-.4-.4-1.3-1.1-2.5-1.1-2.3 0-3.8 1.9-3.8 4.2s1.6 4.1 3.8 4.1c1.3 0 2.1-.6 2.5-1.1v.9h2.3v-12h-2.3zm0 9.4c-.3.4-.9.9-1.8.9-1.2 0-2.1-.9-2.1-2.2s.9-2.2 2.1-2.2c.9 0 1.5.5 1.8.9z"/><path d="m64.434 71.1c-.5-.5-1.3-1-2.5-1-2.2 0-3.8 1.9-3.8 4.2s1.5 4.1 3.8 4.1c1.2 0 2-.6 2.5-1v.8h2.3v-8h-2.3zm0 4.6c-.3.4-.9.8-1.7.8-1.2 0-2.1-.9-2.1-2.2s.9-2.2 2.1-2.2c.8 0 1.4.4 1.7.8z"/><path d="m73.334 70.1c-1.3 0-2.1.7-2.5 1.1v-1h-2.4v8h2.3v-5.2c.3-.4.8-.9 1.7-.9 1 0 1.5.6 1.5 1.7v4.5h2.4v-4.9c0-2-1-3.3-3-3.3z"/><path d="m43.034 75.5c-.3.4-.9.9-1.7.9-1 0-1.6-.6-1.6-1.7v-4.5h-2.3v4.9c0 1.9 1.1 3.2 3.1 3.2 1.3 0 2.1-.7 2.6-1.1v1h2.3v-8h-2.3v5.3z"/><path d="m33.434 71.1c-.5-.5-1.3-1-2.5-1-2.2 0-3.8 1.9-3.8 4.2s1.5 4.1 3.8 4.1c1.2 0 2-.6 2.5-1v.8h2.3v-8h-2.3zm0 4.6c-.3.4-.9.8-1.7.8-1.2 0-2.1-.9-2.1-2.2s.9-2.2 2.1-2.2c.8 0 1.4.4 1.7.8z"/><path d="m27.434 66.2h-3l-4 5.5v-5.5h-2.7v12.1h2.7v-5.5l4 5.5h3.1l-4.6-6.2z"/><path d="m51.534 68c.8 0 1.3.3 1.3.3l.4-1.8s-.6-.5-2.1-.5c-2 0-3.2 1.1-3.2 3.2v.9h-1.2v1.9h1.2v6.1h2.4v-6.1h2.7v-1.9h-2.7v-.7c-.1-.9.4-1.4 1.2-1.4z"/></g><path d="m1.911 113.607c0-3.595 2.425-6.277 6.277-6.277 2.184 0 3.628.809 4.024 1.187l-.912 1.943s-1.066-.843-2.923-.843c-2.408 0-3.835 1.72-3.835 4.059 0 2.511 1.496 3.973 3.628 3.973 1.29 0 1.926-.413 1.926-.413v-2.562h-2.407v-2.013h4.764v5.606s-1.531 1.444-4.454 1.444c-3.629.001-6.088-2.44-6.088-6.104z" fill="#e10915"/><path d="m22.498 111.526v8.014h-2.322v-.963c-.396.43-1.238 1.135-2.562 1.135-1.995 0-3.079-1.341-3.079-3.232v-4.953h2.356v4.488c0 1.049.585 1.686 1.565 1.686.86 0 1.428-.516 1.72-.911v-5.263h2.322z" fill="#e10915"/><path d="m30.565 119.213s-.671.499-2.184.499c-1.96 0-3.164-1.066-3.164-3.182v-3.13h-1.152v-1.874h1.152v-2.872h2.39v2.872h2.717v1.874h-2.717v2.718c0 1.015.464 1.479 1.307 1.479.791 0 1.255-.344 1.255-.344z" fill="#e10915"/><path d="m39.543 116.238-5.83-.018c.258 1.136 1.066 1.686 2.356 1.686 1.651 0 2.425-.809 2.425-.809l.791 1.41s-1.032 1.204-3.371 1.204c-2.769 0-4.505-1.65-4.505-4.196 0-2.39 1.599-4.161 4.179-4.161 2.476 0 3.955 1.72 3.955 4.213zm-2.149-1.478c-.069-.964-.722-1.737-1.823-1.737-.963 0-1.668.619-1.875 1.737z" fill="#e10915"/><path d="m45.289 107.502h2.803l1.857 8.685 2.408-8.685h2.424l2.253 8.685 1.978-8.685h2.7l-2.992 12.038h-3.113l-2.132-7.824-2.218 7.824h-3.13z" fill="#e10915"/><path d="m61.819 115.551c0-2.546 1.856-4.196 4.367-4.196 2.632 0 4.334 1.686 4.334 4.11 0 2.476-1.823 4.247-4.351 4.247-2.648 0-4.35-1.772-4.35-4.161zm6.43 0c0-1.359-.825-2.271-2.063-2.271-1.289 0-2.098.929-2.098 2.287 0 1.324.843 2.235 2.098 2.235 1.256.001 2.063-.927 2.063-2.251z" fill="#e10915"/><path d="m72.035 115.533c0-2.305 1.582-4.179 4.161-4.179 2.098 0 2.958.859 2.958.859l-.774 1.686s-.55-.533-1.736-.533c-1.29 0-2.098.912-2.098 2.167 0 1.272.808 2.167 2.098 2.167 1.187 0 1.736-.516 1.736-.516l.774 1.668s-.86.877-2.958.877c-2.579 0-4.161-1.875-4.161-4.196z" fill="#e10915"/><path d="m88.735 114.588v4.952h-2.339v-4.402c0-1.032-.585-1.686-1.564-1.686-.86 0-1.41.499-1.72.912v5.176h-2.339v-12.038h2.339v4.971c.412-.447 1.237-1.118 2.545-1.118 1.994-.001 3.078 1.34 3.078 3.233z" fill="#e10915"/><path d="m98.522 116.238-5.83-.018c.258 1.136 1.066 1.686 2.356 1.686 1.65 0 2.425-.809 2.425-.809l.791 1.41s-1.032 1.204-3.371 1.204c-2.769 0-4.505-1.65-4.505-4.196 0-2.39 1.599-4.161 4.179-4.161 2.476 0 3.955 1.72 3.955 4.213zm-2.15-1.478c-.069-.964-.723-1.737-1.823-1.737-.963 0-1.668.619-1.874 1.737z" fill="#e10915"/><path d="m99.762 118.474c0-.757.532-1.272 1.289-1.272.809 0 1.29.499 1.29 1.256 0 .739-.499 1.255-1.272 1.255-.775-.001-1.307-.5-1.307-1.239z" fill="#e10915"/></svg>