<svg viewBox="0 0 5669.29 6590.55" xmlns="http://www.w3.org/2000/svg"><path d="m0 0h5669.29v5669.3h-5669.29z" fill="#fff"/><path d="m216 5453.29h5237.28v-5237.29h-5237.28zm5021.31-216h-4805.31v-4805.29h4805.3z" fill="#e10915"/><path d="m1864.78 2271.15h957.77v957.78h-957.77z" fill="#e10915"/><path d="m2966.58 2270.64v958.29h958.29z" fill="#e10915"/><path d="m1864.78 1169.4h957.77v957.77h-957.77z" fill="#e10915"/><path d="m2966.58 1169.39v958.29l958.29-958.29z" fill="#e10915"/><path d="m1415.49 3795.17h-176.67l-228.3 318.62v-318.62h-155.81v694.79h155.81v-312.63l228.3 312.63h180.65l-267.99-355.34z" fill="#e10915"/><path d="m2315.56 4331.15c-17.88 22.83-49.61 52.6-99.26 52.6-56.6 0-90.32-36.72-90.32-97.27v-259.06h-135.98v285.85c0 109.2 62.52 186.63 177.67 186.63 76.41 0 124.07-39.71 147.89-65.54v55.64h134v-462.58h-134z" fill="#e10915"/><path d="m3548.76 4076.07c-27.82-26.78-75.46-58.59-141.95-58.59-129 0-218.38 107.2-218.38 243.19 0 134 88.32 239.24 218.38 239.24 70.46 0 117.12-32.77 141.95-57.59v47.68h134v-462.58h-134zm0 266c-18.88 20.83-50.63 43.66-98.26 43.66-71.48 0-122.09-51.61-122.09-127s50.61-127 122.09-127c47.63 0 79.38 22.79 98.26 43.66z" fill="#e10915"/><path d="m1760.2 4076.07c-27.8-26.78-75.46-58.59-141.95-58.59-129 0-218.36 107.2-218.36 243.19 0 134 88.32 239.24 218.36 239.24 70.49 0 117.12-32.77 141.95-57.59v47.68h134v-462.58h-134zm0 266c-18.86 20.83-50.63 43.66-98.29 43.66-71.44 0-122.07-51.61-122.07-127s50.63-127 122.07-127c47.66 0 79.43 22.79 98.29 43.66z" fill="#e10915"/><path d="m4680.62 3795.17v284.83c-23.83-24.78-72.48-62.54-146.92-62.54-130 0-218.36 107.2-218.36 243.19s90.32 239.24 218.36 239.24c74.44 0 123.09-36.72 146.92-62.54v52.65h134v-694.83zm0 540.93c-17.88 22.87-51.63 49.65-103.21 49.65-71.48 0-122.09-51.61-122.09-127s50.61-127 122.09-127c51.59 0 85.33 26.78 103.21 49.61z" fill="#e10915"/><path d="m4062.87 4017.48c-75.46 0-124.11 39.71-146.92 65.54v-55.6h-134.95v462.58h135v-303.77c16.88-23.83 48.63-52.6 99.26-52.6 56.58 0 89.32 36.76 89.32 97.27v259.1h136v-285.89c0-109.2-62.54-186.63-177.65-186.63" fill="#e10915"/><path d="m2805.84 3897.38c45.66 0 72.46 19.88 72.46 19.88l21.85-103.26s-36.74-28.78-124.09-28.78c-113.15 0-183.64 65.54-183.64 187.63v54.56h-68.49v111.2h68.49v351.39h138v-351.38h156.84v-111.2h-156.86v-42.66c0-58.59 26.78-87.37 75.43-87.37" fill="#e10915"/><path d="m2965.13 3795.17h137.98v694.79h-137.98z" fill="#e10915"/><path d="m0 0h5669.29v5669.3h-5669.29z" fill="none"/><g fill="#e10915"><path d="m690.48 6379.8c0 57.08-41.25 95.93-120.87 95.93h-137.19v-335.73h135.74c70.51 0 107 30.7 107 83.94 0 36.93-18.71 64.27-51.32 77.7 42.16 10.05 66.64 35.95 66.64 78.16zm-181.31-186.58v85.38h46.53c31.18 0 49.4-18.71 49.4-44.13 0-26.86-15.83-41.25-49.88-41.25zm107 182.75c0-27.82-20.15-44.61-51.8-44.61h-55.2v88.74h55.16c34.05-.01 51.8-17.27 51.8-44.1z"/><path d="m739.88 6187.94c0-20.15 14.39-34.06 36-34.06 23 0 35.49 13.43 35.49 33.1 0 20.15-13.43 34.06-35 34.06-22.1-.04-36.49-13.44-36.49-33.1zm2.4 64.27h66.67v223.52h-66.68z"/><path d="m1021 6249.81-4.8 63.31s-5.28-1.44-15.83-1.44c-34.06 0-56.12 22.54-68.59 39.33v124.71h-66.24v-223.51h66.19v39.33c13.91-20.15 38.37-44.13 71.47-44.13 12.47.01 17.8 2.4 17.8 2.4z"/><path d="m1282.37 6252.21v223.52h-65.71v-23.5c-12 12-34.54 28.3-69.07 28.3-62.36 0-105-50.84-105-115.6 0-65.71 43.17-118 105-118 32.14 0 55.64 15.83 69.07 28.78v-23.5zm-65.71 151.57v-79.62a62.53 62.53 0 0 0 -47.49-21.1c-34.54 0-58.52 24.94-58.52 60.92 0 35.49 24 60.92 58.52 60.92a62.53 62.53 0 0 0 47.48-21.12z"/><path d="m1293.88 6575 4.8-50.36a35 35 0 0 0 7.19 1c21.58 0 33.1-14.39 33.1-43.65v-229.78h68.11v229.79c0 63.31-40.29 94.49-95.93 94.49a120.4 120.4 0 0 1 -17.27-1.49zm43.12-387.06c0-20.15 14.87-34.06 36.45-34.06 23 0 36.45 13.43 36.45 33.1 0 20.15-13.91 34.06-36 34.06s-36.9-13.44-36.9-33.1z"/><path d="m1810.94 6337.59v138.14h-66.19v-125.19c0-28.78-16.31-46.53-43.17-46.53-23.5 0-38.85 13.91-47.49 24.94v146.78h-65.71v-223.52h65.71v25.9c11.51-12 34.54-30.7 71-30.7 55.63.01 85.85 37.42 85.85 90.18z"/><path d="m2096.34 6252.21v223.52h-65.71v-23.5c-12 12-34.54 28.3-69.07 28.3-62.36 0-105-50.84-105-115.6 0-65.71 43.17-118 105-118 32.14 0 55.64 15.83 69.07 28.78v-23.5zm-65.71 151.57v-79.62a62.53 62.53 0 0 0 -47.49-21.1c-34.54 0-58.52 24.94-58.52 60.92 0 35.49 24 60.92 58.52 60.92a62.53 62.53 0 0 0 47.49-21.12z"/><path d="m2107.85 6575 4.8-50.36a35 35 0 0 0 7.19 1c21.58 0 33.1-14.39 33.1-43.65v-229.78h68.06v229.79c0 63.31-40.29 94.49-95.93 94.49a120.4 120.4 0 0 1 -17.22-1.49zm43.15-387.06c0-20.15 14.87-34.06 36.45-34.06 23 0 36.45 13.43 36.45 33.1 0 20.15-13.91 34.06-36 34.06s-36.9-13.44-36.9-33.1z"/><path d="m2517 6363c0 66.19-43.65 117.52-105.52 117.52-33.58 0-56.12-15.83-68.59-27.82v23.5h-65.23v-336.2h65.23v135.26c12.47-12 35-27.82 68.59-27.82 62.82-.02 105.52 50.34 105.52 115.56zm-68.11 1c0-36-24.46-60.92-59-60.92-23 0-37.89 11-47 21.1v79.62c9.11 10.07 24 21.1 47 21.1 34.53-.01 58.99-24.95 58.99-60.9z"/><path d="m2559.2 6364.45c0-71 51.8-117 121.83-117 73.39 0 121.35 46.53 121.35 114.64 0 69.07-50.84 118.48-121.83 118.48-74.34-.04-121.35-49.44-121.35-116.12zm178.91 0c0-37.89-23-62.84-57.08-62.84-35.49 0-57.56 25.42-57.56 63.31 0 36.45 23 61.4 57.56 61.4 34.97.01 57.08-25.41 57.08-61.87z"/><path d="m2851.78 6140h67.15v335.76h-67.15z"/><path d="m2930.45 6575 4.8-50.36a35 35 0 0 0 7.19 1c21.58 0 33.1-14.39 33.1-43.65v-229.78h68.11v229.79c0 63.31-40.29 94.49-95.93 94.49a120.4 120.4 0 0 1 -17.27-1.49zm43.17-387.08c0-20.15 14.87-34.06 36.45-34.06 23 0 36.45 13.43 36.45 33.1 0 20.15-13.91 34.06-36 34.06s-36.9-13.42-36.9-33.08z"/><path d="m3319.92 6383.64-161.64-.48c6.72 31.18 29.26 46.53 64.75 46.53 46 0 67.63-22.54 67.63-22.54l22.06 39.81s-28.78 33.58-94 33.58c-77.22 0-125.67-46-125.67-117 0-67.15 44.61-116.08 116.56-116.08 69.07 0 110.32 48 110.32 117.52zm-60.44-41.73c-1.92-25.9-19.67-47.49-50.36-47.49-26.38 0-46 16.79-51.8 47.49z"/><path d="m3486.36 6425.85 112.72-121.35h-109.84v-52.28h195.22v50.36l-111.76 120.87h116.08v52.28h-202.42z"/><path d="m3959.3 6252.21v223.52h-65.71v-23.5c-12 12-34.54 28.3-69.07 28.3-62.36 0-105-50.84-105-115.6 0-65.71 43.17-118 105-118 32.14 0 55.64 15.83 69.07 28.78v-23.5zm-65.71 151.57v-79.62a62.53 62.53 0 0 0 -47.49-21.1c-34.54 0-58.52 24.94-58.52 60.92 0 35.49 24 60.92 58.52 60.92a62.53 62.53 0 0 0 47.49-21.12z"/><path d="m4131 6457.51 14.87-43.17s20.63 18.71 60.92 18.71c19.67 0 32.62-8.15 32.62-24.46 0-15.83-13.91-21.58-36.93-26.86l-9.59-1.92c-33.1-7.19-56.6-22.06-56.6-60.92 0-44.13 35-71.47 89.22-71.47 56.6 0 83 22.06 83 22.06l-15.83 42.69s-19.19-16.79-57.08-16.79c-19.19 0-30.22 7.67-30.22 23 0 16.31 14.87 21.58 39.33 27.34l8.15 1.92c32.62 6.72 57.08 21.58 57.08 60.44 0 44.61-36 72.43-91.61 72.43-61.41.02-87.33-23-87.33-23z"/><path d="m4573.26 6383.64-161.64-.48c6.72 31.18 29.26 46.53 64.75 46.53 46 0 67.63-22.54 67.63-22.54l22.06 39.81s-28.78 33.58-94 33.58c-77.22 0-125.67-46-125.67-117 0-67.15 44.61-116.08 116.56-116.08 69.07 0 110.32 48 110.32 117.52zm-60.44-41.73c-1.92-25.9-19.67-47.49-50.36-47.49-26.38 0-46 16.79-51.8 47.49z"/><path d="m4861 6363c0 66.19-43.65 117.52-105.52 117.52-33.58 0-56.12-15.83-68.59-27.82v23.5h-65.19v-336.2h65.23v135.26c12.47-12 35-27.82 68.59-27.82 62.84-.02 105.48 50.34 105.48 115.56zm-68.11 1c0-36-24.46-60.92-59-60.92-23 0-37.89 11-47 21.1v79.62c9.11 10.07 24 21.1 47 21.1 34.58-.01 59.05-24.95 59.05-60.9z"/><path d="m5130.13 6383.64-161.64-.48c6.72 31.18 29.26 46.53 64.75 46.53 46 0 67.63-22.54 67.63-22.54l22.06 39.81s-28.78 33.58-94 33.58c-77.22 0-125.67-46-125.67-117 0-67.15 44.61-116.08 116.56-116.08 69.07 0 110.32 48 110.32 117.52zm-60.44-41.73c-1.92-25.9-19.67-47.49-50.36-47.49-26.38 0-46 16.79-51.8 47.49z"/><path d="m5163.7 6445.51c0-21.1 15.35-36 36.45-36 23 0 36.45 14.39 36.45 35.49 0 20.63-13.91 35.49-36 35.49-21.55.04-36.9-14.35-36.9-34.98z"/></g></svg>