<svg enable-background="new 0 0 5669.3 6760.6" viewBox="0 0 5669.3 6760.6" xmlns="http://www.w3.org/2000/svg"><path d="m0 0h5669.3v5669.3h-5669.3z" fill="#fff"/><path d="m216 5453.3h5237.3v-5237.3h-5237.3zm5021.3-216h-4805.3v-4805.3h4805.3z" fill="#e2001a"/><path d="m1864.8 2271.1h957.8v957.8h-957.8z" fill="#e10915"/><path d="m2966.6 2270.6v958.3h958.3z" fill="#e10915"/><path d="m1864.8 1169.4h957.8v957.8h-957.8z" fill="#e10915"/><path d="m2966.6 1169.4v958.3l958.3-958.3z" fill="#e10915"/><path d="m1415.5 3795.2h-176.7l-228.3 318.6v-318.6h-155.8v694.8h155.8v-312.7l228.3 312.7h180.7l-268-355.4z" fill="#e10915"/><path d="m2315.6 4331.1c-17.9 22.8-49.6 52.6-99.3 52.6-56.6 0-90.3-36.7-90.3-97.3v-259.1h-136v285.9c0 109.2 62.5 186.6 177.7 186.6 76.4 0 124.1-39.7 147.9-65.5v55.6h134v-462.6h-134z" fill="#e10915"/><path d="m3548.8 4076.1c-27.8-26.8-75.5-58.6-141.9-58.6-129 0-218.4 107.2-218.4 243.2 0 134 88.3 239.2 218.4 239.2 70.5 0 117.1-32.8 141.9-57.6v47.7h134v-462.6h-134zm0 266c-18.9 20.8-50.6 43.7-98.3 43.7-71.5 0-122.1-51.6-122.1-127s50.6-127 122.1-127c47.6 0 79.4 22.8 98.3 43.7z" fill="#e10915"/><path d="m1760.2 4076.1c-27.8-26.8-75.5-58.6-141.9-58.6-129 0-218.4 107.2-218.4 243.2 0 134 88.3 239.2 218.4 239.2 70.5 0 117.1-32.8 141.9-57.6v47.7h134v-462.6h-134zm0 266c-18.9 20.8-50.6 43.7-98.3 43.7-71.4 0-122.1-51.6-122.1-127s50.6-127 122.1-127c47.7 0 79.4 22.8 98.3 43.7z" fill="#e10915"/><path d="m4680.6 3795.2v284.8c-23.8-24.8-72.5-62.5-146.9-62.5-130 0-218.4 107.2-218.4 243.2s90.3 239.2 218.4 239.2c74.4 0 123.1-36.7 146.9-62.5v52.6h134v-694.8zm0 540.9c-17.9 22.9-51.6 49.6-103.2 49.6-71.5 0-122.1-51.6-122.1-127s50.6-127 122.1-127c51.6 0 85.3 26.8 103.2 49.6z" fill="#e10915"/><path d="m4062.9 4017.5c-75.5 0-124.1 39.7-146.9 65.5v-55.6h-135v462.6h135v-303.8c16.9-23.8 48.6-52.6 99.3-52.6 56.6 0 89.3 36.8 89.3 97.3v259.1h136v-285.9c0-109.2-62.6-186.6-177.7-186.6" fill="#e10915"/><path d="m2805.8 3897.4c45.7 0 72.5 19.9 72.5 19.9l21.8-103.3s-36.7-28.8-124.1-28.8c-113.1 0-183.6 65.5-183.6 187.6v54.6h-68.5v111.2h68.5v351.4h138v-351.4h156.8v-111.2h-156.9v-42.7c.1-58.5 26.9-87.3 75.5-87.3" fill="#e10915"/><path d="m2965.1 3795.2h138v694.8h-138z" fill="#e10915"/><g fill="#fff"><path d="m548.6 6360-113.1-210.4h108.2l79.2 162.6 84-162.6h104.1l-115.5 209.8 117.3 213.4h-105.2l-85.8-165.7-85.3 165.7h-104z"/><path d="m819.4 6636.3c44.1 0 72.5-19.4 87.7-57.4l9.1-20-108.8-267.8h90.6l63.5 182.6 61.1-182.6h82.2l-101.6 279.3c-30.2 91.3-86.5 129.4-183.8 129.4z"/><path d="m1447 6429.5c0 87.1-64.1 149.3-153.6 149.3-93.7 0-153-61.1-153-146.9 0-183.8 79.8-282.4 201.3-282.4h33.2c28.4 0 44.7-10.3 44.7-10.3v62.3s-16.9 10.9-45.3 10.3h-21.2c-56.2-.6-96.7 27.2-117.9 87.1 20.1-9.3 42-14 64.1-13.9 90.3 0 147.7 60.5 147.7 144.5zm-81 3c0-46-29-78-71.9-78-44.1 0-71.9 32.6-71.9 78.6s29 77.4 71.9 77.4c44.1.1 71.9-32 71.9-78z"/><path d="m1802.5 6291.1v281.7h-82.8v-29.6c-15.1 15.1-43.5 35.7-87.1 35.7-78.6 0-132.4-64.1-132.4-145.7 0-82.8 54.4-148.7 132.4-148.7 40.5 0 70.1 20 87.1 36.3v-29.6zm-82.8 191v-100.4c-11.5-12.7-30.8-26.6-59.9-26.6-43.5 0-73.8 31.4-73.8 76.8 0 44.7 30.2 76.8 73.8 76.8 29 .1 48.4-13.9 59.9-26.6z"/><path d="m2146.5 6493c0 50.8-46 79.8-117.9 79.8h-154.8v-281.7h159.6c67.1 0 104 24.8 104 72.5 0 29-15.7 52-44.7 64.1 35.1 10.3 53.8 32.7 53.8 65.3zm-189.8-153v66h58c25.4 0 44.1-11.5 44.1-32.6s-14.5-33.3-44.7-33.3zm107 145.7c0-21.2-17.5-32-43.5-32h-63.5v67.1h57.4c32.6 0 49.6-12.7 49.6-35.1z"/><path d="m2499 6291.1v281.7h-82.8v-29.6c-15.1 15.1-43.5 35.7-87.1 35.7-78.6 0-132.4-64.1-132.4-145.7 0-82.8 54.4-148.7 132.4-148.7 40.5 0 70.1 20 87.1 36.3v-29.6zm-82.8 191v-100.4c-11.5-12.7-30.8-26.6-59.9-26.6-43.5 0-73.8 31.4-73.8 76.8 0 44.7 30.2 76.8 73.8 76.8 29 .1 48.4-13.9 59.9-26.6z"/><path d="m2718.4 6432c0-81.6 55.6-147.5 146.3-147.5 74.4 0 104.6 30.8 104.6 30.8l-27.8 59.3s-19.4-18.1-60.5-18.1c-45.3 0-73.8 31.4-73.8 75.6s28.4 75.6 73.8 75.6c41.1 0 60.5-18.1 60.5-18.1l27.8 59.3s-30.2 30.8-104.6 30.8c-90.6-.2-146.3-66.1-146.3-147.7z"/><path d="m3287.4 6456.8-203.8-.6c8.5 39.3 36.9 58.6 81.6 58.6 58 0 85.3-28.4 85.3-28.4l27.8 50.2s-36.3 42.3-118.5 42.3c-97.3 0-158.4-58-158.4-147.5 0-84.6 56.2-146.3 146.9-146.3 87.1 0 139.1 60.5 139.1 148.1zm-76.2-52.7c-2.4-32.6-24.8-59.9-63.5-59.9-33.3 0-58 21.2-65.3 59.9z"/><path d="m3716.6 6504.5-7.9 166.3h-72.6v-98h-238.8v98h-72.6l-7.8-166.3h42.3c21.2 0 32.6-13.3 33.9-37.5l10.3-175.9h243v213.4zm-152.3 0v-153.5h-84l-7.3 116.7c-1.2 14.5-3.6 26.6-8.5 36.9z"/><path d="m4126.5 6572.8h-74.4v-225.5l-65.3 225.5h-81l-61.1-224.3v224.3h-75v-281.8h125.8l52.6 196.5 55-196.5h123.3z"/><path d="m4487.5 6572.8h-84v-178.4l-110 178.4h-96.1v-282.3h84v174.1l108.2-174.1h98z"/><path d="m4904.6 6504.5-7.9 166.3h-72.5v-98h-265.4v-281.7h82.8v213.4h113.1v-213.4h82.8v213.4z"/><path d="m5237.2 6291.1v281.7h-82.8v-29.6c-15.1 15.1-43.5 35.7-87.1 35.7-78.6 0-132.4-64.1-132.4-145.7 0-82.8 54.4-148.7 132.4-148.7 40.5 0 70.1 20 87.1 36.3v-29.6zm-82.8 191v-100.4c-11.5-12.7-30.8-26.6-59.9-26.6-43.5 0-73.8 31.4-73.8 76.8 0 44.7 30.2 76.8 73.8 76.8 29 .1 48.4-13.9 59.9-26.6z"/></g></svg>