<svg enable-background="new 0 0 5669.3 6599.1" viewBox="0 0 5669.3 6599.1" xmlns="http://www.w3.org/2000/svg"><path d="m0 0h5669.3v5669.3h-5669.3z" fill="#fff"/><path d="m216 5453.3h5237.3v-5237.3h-5237.3zm5021.3-216h-4805.3v-4805.3h4805.3z" fill="#e10915"/><path d="m1864.8 2271.1h957.8v957.8h-957.8z" fill="#e10915"/><path d="m2966.6 2270.6v958.3h958.3z" fill="#e10915"/><path d="m1864.8 1169.4h957.8v957.8h-957.8z" fill="#e10915"/><path d="m2966.6 1169.4v958.3l958.3-958.3z" fill="#e10915"/><path d="m1415.5 3795.2h-176.7l-228.3 318.6v-318.6h-155.8v694.8h155.8v-312.7l228.3 312.7h180.7l-268-355.4z" fill="#e10915"/><path d="m2315.6 4331.1c-17.9 22.8-49.6 52.6-99.3 52.6-56.6 0-90.3-36.7-90.3-97.3v-259.1h-136v285.9c0 109.2 62.5 186.6 177.7 186.6 76.4 0 124.1-39.7 147.9-65.5v55.6h134v-462.6h-134z" fill="#e10915"/><path d="m3548.8 4076.1c-27.8-26.8-75.5-58.6-141.9-58.6-129 0-218.4 107.2-218.4 243.2 0 134 88.3 239.2 218.4 239.2 70.5 0 117.1-32.8 141.9-57.6v47.7h134v-462.6h-134zm0 266c-18.9 20.8-50.6 43.7-98.3 43.7-71.5 0-122.1-51.6-122.1-127s50.6-127 122.1-127c47.6 0 79.4 22.8 98.3 43.7z" fill="#e10915"/><path d="m1760.2 4076.1c-27.8-26.8-75.5-58.6-141.9-58.6-129 0-218.4 107.2-218.4 243.2 0 134 88.3 239.2 218.4 239.2 70.5 0 117.1-32.8 141.9-57.6v47.7h134v-462.6h-134zm0 266c-18.9 20.8-50.6 43.7-98.3 43.7-71.4 0-122.1-51.6-122.1-127s50.6-127 122.1-127c47.7 0 79.4 22.8 98.3 43.7z" fill="#e10915"/><path d="m4680.6 3795.2v284.8c-23.8-24.8-72.5-62.5-146.9-62.5-130 0-218.4 107.2-218.4 243.2s90.3 239.2 218.4 239.2c74.4 0 123.1-36.7 146.9-62.5v52.6h134v-694.8zm0 540.9c-17.9 22.9-51.6 49.6-103.2 49.6-71.5 0-122.1-51.6-122.1-127s50.6-127 122.1-127c51.6 0 85.3 26.8 103.2 49.6z" fill="#e10915"/><path d="m4062.9 4017.5c-75.5 0-124.1 39.7-146.9 65.5v-55.6h-135v462.6h135v-303.8c16.9-23.8 48.6-52.6 99.3-52.6 56.6 0 89.3 36.8 89.3 97.3v259.1h136v-285.9c0-109.2-62.6-186.6-177.7-186.6" fill="#e10915"/><path d="m2805.8 3897.4c45.7 0 72.5 19.9 72.5 19.9l21.8-103.3s-36.7-28.8-124.1-28.8c-113.1 0-183.6 65.5-183.6 187.6v54.6h-68.5v111.2h68.5v351.4h138v-351.4h156.8v-111.2h-156.9v-42.7c.1-58.5 26.9-87.3 75.5-87.3" fill="#e10915"/><path d="m2965.1 3795.2h138v694.8h-138z" fill="#e10915"/><path d="m0 0h5669.3v5669.3h-5669.3z" fill="none"/><g fill="#fff"><path d="m432.4 6458.8 25.5-56.3s32.3 26.9 88.1 26.9c33.3 0 53.9-13.7 53.9-43.1 0-27.9-28.9-35.8-65.6-43.6l-13.2-2.9c-42.6-9.3-81.3-33.3-81.3-93 0-66.6 46-106.8 124.4-106.8 75.9 0 112.1 30.9 112.1 30.9l-23.5 55.8s-31.3-23.5-82.8-23.5c-35.3 0-51.9 15.7-51.9 42.6 0 28.4 29.9 36.2 66.1 44.1l12.7 2.9c42.1 9.3 82.8 32.3 82.8 90.6 0 68.5-47 108.7-126.8 108.7-81.8-.1-120.5-33.3-120.5-33.3zm96 48.4h58.8l-21.1 83.3h-55.8z"/><path d="m728.7 6193.8c0-20.6 14.7-34.8 36.7-34.8 23.5 0 36.2 13.7 36.2 33.8 0 20.6-13.7 34.8-35.8 34.8-22.4 0-37.1-13.7-37.1-33.8zm2.4 65.7h68.1v228.2h-68.1z"/><path d="m974.5 6469 15.2-44s21.1 19.1 62.2 19.1c20.1 0 33.3-8.3 33.3-25 0-16.2-14.2-22-37.7-27.4l-9.8-2c-33.8-7.4-57.8-22.5-57.8-62.2 0-45 35.8-73 91.1-73 57.8 0 84.7 22.5 84.7 22.5l-16.2 43.6s-19.6-17.1-58.3-17.1c-19.6 0-30.8 7.8-30.8 23.5 0 16.6 15.2 22 40.2 27.9l8.3 2c33.3 6.9 58.3 22 58.3 61.7 0 45.5-36.7 73.9-93.5 73.9-62.8 0-89.2-23.5-89.2-23.5z"/><path d="m1439.2 6259.5v228.2h-67.1v-24c-12.2 12.2-35.3 28.9-70.5 28.9-63.7 0-107.2-51.9-107.2-118 0-67.1 44.1-120.5 107.2-120.5 32.8 0 56.8 16.2 70.5 29.4v-24zm-187.1-69v-42.6s27.9 34.3 78.8 34.3c51.4 0 78.8-34.3 78.8-34.3v42.6s-25.5 36.7-79.3 36.7c-53.3-.1-78.3-36.8-78.3-36.7zm120 223.7v-81.3c-12.3-13.9-30-21.7-48.5-21.5-35.3 0-59.7 25.5-59.7 62.2 0 36.2 24.5 62.2 59.7 62.2 18.6.1 36.2-7.7 48.5-21.6z"/><path d="m1741.3 6372.6c0 67.6-44.6 120-107.2 120-26.3.2-51.7-10-70.5-28.4v121.4h-66.6v-326.2h66.6v23.5c18.8-18.4 44.2-28.6 70.5-28.4 63.6.1 107.2 51.5 107.2 118.1zm-69.5 1c0-36.7-25-62.2-59.7-62.2-18.5-.2-36.2 7.7-48.5 21.5v81.3c12.3 13.9 30 21.7 48.5 21.5 34.7 0 59.7-25.4 59.7-62.1z"/><path d="m1951.9 6478.3s-18.6 14.2-62.2 14.2c-55.8 0-90.6-30.4-90.6-91.1v-88.1h-32.3v-53.9h32.3v-81.8h69v81.8h77.4v53.9h-77.4v76.4c0 28.9 13.2 42.1 36.7 42.1 23 0 36.2-9.8 36.2-9.8z"/><path d="m2221.2 6259.5v228.2h-67.1v-24c-12.2 12.2-35.3 28.9-70.5 28.9-63.7 0-107.2-51.9-107.2-118 0-67.1 44.1-120.5 107.2-120.5 32.8 0 56.8 16.2 70.5 29.4v-24zm-187.1-69v-42.6s27.9 34.3 78.8 34.3c51.4 0 78.8-34.3 78.8-34.3v42.6s-25.5 36.7-79.3 36.7c-53.3-.1-78.3-36.8-78.3-36.7zm120 223.7v-81.3c-12.3-13.9-30-21.7-48.5-21.5-35.3 0-59.7 25.5-59.7 62.2 0 36.2 24.5 62.2 59.7 62.2 18.6.1 36.3-7.7 48.5-21.6z"/><path d="m2648.7 6344.2v143.5h-66.6v-130.3c0-27.9-14.2-45-40.6-45-22 0-36.7 11.3-45.5 21.5.4 3.4.6 6.8.5 10.3v143.5h-66.1v-130.3c0-27.9-14.2-45-41.1-45-22.5 0-36.7 13.2-44.6 24v151.3h-65.7v-228.2h65.6v26c17.4-19.8 42.6-31.1 69-30.9 36.2 0 60.2 15.7 72.5 41.1 5.9-8.3 31.8-41.1 79.8-41.1 54.9 0 82.8 37.2 82.8 89.6z"/><path d="m2940 6259.5v228.2h-67v-24c-12.2 12.2-35.3 28.9-70.5 28.9-63.7 0-107.2-51.9-107.2-118 0-67.1 44.1-120.5 107.2-120.5 32.8 0 56.8 16.2 70.5 29.4v-24zm-108.2-62.2-75.4 30.9v-45l75.4-36.2 74.9 36.2v45zm41.2 216.9v-81.3c-12.3-13.9-30-21.7-48.5-21.5-35.3 0-59.7 25.5-59.7 62.2 0 36.2 24.5 62.2 59.7 62.2 18.5.1 36.2-7.7 48.5-21.6z"/><path d="m3225 6346.6v141h-67.6v-127.8c0-29.4-16.6-47.5-44.1-47.5-24 0-39.7 14.2-48.5 25.5v149.8h-67.1v-228.2h67.1v26.4c11.8-12.2 35.3-31.3 72.5-31.3 56.9.1 87.7 38.3 87.7 92.1z"/><path d="m3516.4 6259.5v228.2h-67.1v-24c-12.2 12.2-35.3 28.9-70.5 28.9-63.7 0-107.2-51.9-107.2-118 0-67.1 44.1-120.5 107.2-120.5 32.8 0 56.8 16.2 70.5 29.4v-24zm-67.1 154.7v-81.3c-12.3-13.9-30-21.7-48.5-21.5-35.3 0-59.7 25.5-59.7 62.2 0 36.2 24.5 62.2 59.7 62.2 18.5.1 36.2-7.7 48.5-21.6z"/><path d="m3569.8 6321.6h139.1v55.8h-139.1z"/><path d="m3759.3 6193.8c0-20.6 14.7-34.8 36.7-34.8 23.5 0 36.2 13.7 36.2 33.8 0 20.6-13.7 34.8-35.8 34.8-22.4 0-37.1-13.7-37.1-33.8zm2.4 65.7h68.1v228.2h-68.1z"/><path d="m4259.2 6372.6c0 67.6-44.6 120-107.7 120-34.3 0-57.3-16.2-70-28.4v24h-66.6v-343.3h66.6v138.1c12.7-12.2 35.8-28.4 70-28.4 64.1 0 107.7 51.4 107.7 118zm-69.5 1c0-36.7-25-62.2-60.2-62.2-23.5 0-38.7 11.3-48 21.5v81.3c9.3 10.3 24.5 21.5 48 21.5 35.2 0 60.2-25.4 60.2-62.1z"/><path d="m4535.9 6259.5v228.2h-67.1v-26.9c-18.7 20.4-45.3 32-73 31.8-56.3 0-87.6-38.2-87.6-92.1v-141h68.1v127.8c0 29.4 16.2 47.5 44.1 47.5 24 0 39.7-14.2 48.5-25.5v-149.9h67z"/><path d="m4820.9 6346.6v141h-67.6v-127.8c0-29.4-16.6-47.5-44.1-47.5-24 0-39.7 14.2-48.5 25.5v149.8h-67.1v-228.2h67.1v26.4c11.8-12.2 35.3-31.3 72.5-31.3 56.8.1 87.7 38.3 87.7 92.1z"/><path d="m5112.2 6259.5v228.2h-67.1v-24c-12.2 12.2-35.3 28.9-70.5 28.9-63.7 0-107.2-51.9-107.2-118 0-67.1 44.1-120.5 107.2-120.5 32.8 0 56.8 16.2 70.5 29.4v-24zm-187-69v-42.6s27.9 34.3 78.8 34.3c51.4 0 78.8-34.3 78.8-34.3v42.6s-25.5 36.7-79.3 36.7c-53.4-.1-78.3-36.8-78.3-36.7zm120 223.7v-81.3c-12.3-13.9-30-21.7-48.5-21.5-35.3 0-59.7 25.5-59.7 62.2 0 36.2 24.5 62.2 59.7 62.2 18.5.1 36.2-7.7 48.5-21.6z"/><path d="m5162.2 6456.8c0-21.5 15.7-36.7 37.2-36.7 23.5 0 37.2 14.7 37.2 36.2 0 21.1-14.2 36.2-36.7 36.2-22 0-37.7-14.6-37.7-35.7z"/></g></svg>