<svg enable-background="new 0 0 5669.3 6831.5" viewBox="0 0 5669.3 6831.5" xmlns="http://www.w3.org/2000/svg"><path d="m0 0h5669.3v5669.3h-5669.3z" fill="#fff"/><g fill="#e10915"><path d="m216 5453.3h5237.3v-5237.3h-5237.3zm5021.3-216h-4805.3v-4805.3h4805.3z"/><path d="m1864.8 2271.1h957.8v957.8h-957.8z"/><path d="m2966.6 2270.6v958.3h958.3z"/><path d="m1864.8 1169.4h957.8v957.8h-957.8z"/><path d="m2966.6 1169.4v958.3l958.3-958.3z"/><path d="m1415.5 3795.2h-176.7l-228.3 318.6v-318.6h-155.8v694.8h155.8v-312.7l228.3 312.7h180.7l-268-355.4z"/><path d="m2315.6 4331.1c-17.9 22.8-49.6 52.6-99.3 52.6-56.6 0-90.3-36.7-90.3-97.3v-259.1h-136v285.9c0 109.2 62.5 186.6 177.7 186.6 76.4 0 124.1-39.7 147.9-65.5v55.6h134v-462.6h-134z"/><path d="m3548.8 4076.1c-27.8-26.8-75.5-58.6-141.9-58.6-129 0-218.4 107.2-218.4 243.2 0 134 88.3 239.2 218.4 239.2 70.5 0 117.1-32.8 141.9-57.6v47.7h134v-462.6h-134zm0 266c-18.9 20.8-50.6 43.7-98.3 43.7-71.5 0-122.1-51.6-122.1-127s50.6-127 122.1-127c47.6 0 79.4 22.8 98.3 43.7z"/><path d="m1760.2 4076.1c-27.8-26.8-75.5-58.6-141.9-58.6-129 0-218.4 107.2-218.4 243.2 0 134 88.3 239.2 218.4 239.2 70.5 0 117.1-32.8 141.9-57.6v47.7h134v-462.6h-134zm0 266c-18.9 20.8-50.6 43.7-98.3 43.7-71.4 0-122.1-51.6-122.1-127s50.6-127 122.1-127c47.7 0 79.4 22.8 98.3 43.7z"/><path d="m4680.6 3795.2v284.8c-23.8-24.8-72.5-62.5-146.9-62.5-130 0-218.4 107.2-218.4 243.2s90.3 239.2 218.4 239.2c74.4 0 123.1-36.7 146.9-62.5v52.6h134v-694.8zm0 540.9c-17.9 22.9-51.6 49.6-103.2 49.6-71.5 0-122.1-51.6-122.1-127s50.6-127 122.1-127c51.6 0 85.3 26.8 103.2 49.6z"/><path d="m4062.9 4017.5c-75.5 0-124.1 39.7-146.9 65.5v-55.6h-135v462.6h135v-303.8c16.9-23.8 48.6-52.6 99.3-52.6 56.6 0 89.3 36.8 89.3 97.3v259.1h136v-285.9c0-109.2-62.6-186.6-177.7-186.6"/><path d="m2805.8 3897.4c45.7 0 72.5 19.9 72.5 19.9l21.8-103.3s-36.7-28.8-124.1-28.8c-113.1 0-183.6 65.5-183.6 187.6v54.6h-68.5v111.2h68.5v351.4h138v-351.4h156.8v-111.2h-156.9v-42.7c.1-58.5 26.9-87.3 75.5-87.3"/><path d="m2965.1 3795.2h138v694.8h-138z"/></g><path d="m0 0h5669.3v5669.3h-5669.3z" fill="none"/><path d="m432.4 6140h198.6c164.4 0 257.4 96.7 257.4 257.4 0 166.6-107.8 263.3-267.8 263.3h-188.2zm195.6 428.4c87 0 140.6-61.7 140.6-168.1 0-108.6-52.1-165.1-141.3-165.1h-75.8v333.2z" fill="#fff"/><path d="m953.8 6488.1c0-110.1 80.3-181.5 188.9-181.5 113.8 0 188.2 72.1 188.2 177.8 0 107.1-78.8 183.7-188.9 183.7-115.3 0-188.2-76.6-188.2-180zm277.5 0c0-58.8-35.7-97.4-88.5-97.4-55 0-89.3 39.4-89.3 98.2 0 56.5 35.7 95.2 89.3 95.2 54.3-.1 88.5-39.5 88.5-96z" fill="#fff"/><path d="m1778.7 6485.8c0 102.6-67.7 182.2-163.6 182.2-52.1 0-87-24.5-106.4-43.1v36.5h-101.2v-521.4h101.2v209.8c19.3-18.6 54.3-43.1 106.4-43.1 97.4-.1 163.6 78 163.6 179.1zm-105.6 1.5c0-55.8-37.9-94.5-91.5-94.5-35.7 0-58.8 17.1-72.9 32.7v123.5c14.1 15.6 37.2 32.7 72.9 32.7 53.5.1 91.5-38.6 91.5-94.4z" fill="#fff"/><path d="m2096.3 6310.3-7.4 98.2s-8.2-2.2-24.6-2.2c-52.8 0-87 35-106.4 61v193.4h-102.6v-346.7h102.7v61c21.6-31.2 59.5-68.4 110.8-68.4 19.3 0 27.5 3.7 27.5 3.7z" fill="#fff"/><path d="m2148.4 6738.7c54.3 0 89.3-23.8 107.9-70.7l11.2-24.5-134-329.5h111.6l78.1 224.6 75.1-224.6h101.2l-125 343.6c-37.2 112.3-106.4 159.2-226.1 159.2zm85.5-544.4 169.6-45.4v81.8l-169.6 40.2z" fill="#fff"/><path d="m3016.4 6646.5s-28.3 21.6-94.5 21.6c-84.8 0-137.6-46.1-137.6-138.4v-133.9h-49.1v-81.8h49.1v-124.2h104.9v124.2h117.5v81.8h-117.5v116c0 43.9 20.1 64 55.8 64 35 0 55-14.9 55-14.9z" fill="#fff"/><path d="m3069.2 6738.7c54.3 0 89.3-23.8 107.9-70.7l11.2-24.5-134-329.5h111.6l78.1 224.6 75.1-224.6h101.2l-125 343.6c-37.2 112.3-106.4 159.2-226.1 159.2zm85.5-544.4 169.6-45.4v81.8l-169.6 40.2z" fill="#fff"/><path d="m3464.9 6583.3 174.8-188.2h-170.3v-81.1h302.7v78.1l-173.3 187.4h180v81.1h-313.9zm43.1-368.9v-67.7l114.6 46.9 113.8-46.9v67.7l-113.8 55.8z" fill="#fff"/><path d="m4201.3 6140v520.7h-101.9v-38.7c-17.9 18.6-54.3 46.1-110.1 46.1-95.2 0-162.9-77.4-162.9-179.3s66.2-182.2 162.9-182.2c55.8 0 92.2 27.5 110.1 46.1v-212.7zm-101.9 406.1v-117.6c-13.4-16.4-37.9-35.7-76.6-35.7-53.6 0-90.7 38.7-90.7 94.5s37.2 94.5 90.7 94.5c38.6 0 63.2-19.3 76.6-35.7z" fill="#fff"/><path d="m4629.7 6517.8-250.7-.7c10.4 48.4 45.4 72.1 100.4 72.1 71.4 0 104.9-35 104.9-35l34.2 61.7s-44.6 52.1-145.8 52.1c-119.8 0-194.9-71.4-194.9-181.5 0-104.1 69.2-180 180.7-180 107.1 0 171.1 74.4 171.1 182.2zm-93.7-64.7c-3-40.2-30.5-73.6-78.1-73.6-40.9 0-71.4 26-80.3 73.6z" fill="#fff"/><path d="m5049.9 6446.4v214.2h-102.6v-194.1c0-44.6-25.3-72.1-66.9-72.1-36.5 0-60.3 21.6-73.6 38.7v227.6h-101.9v-346.7h101.9v40.2c17.9-18.6 53.5-47.6 110.1-47.6 86.2 0 133 58 133 139.8zm-167.3-176.3-114.6-55.8v-67.7l114.5 46.9 113.8-46.9v67.7z" fill="#fff"/><path d="m5123.5 6613.8c0-32.7 23.8-55.8 56.5-55.8 35.7 0 56.5 22.3 56.5 55 0 32-21.6 55-55.8 55-33.3.1-57.2-22.2-57.2-54.2z" fill="#fff"/></svg>